<?xml version="1.0" standalone="no"?>
<!DOCTYPE svg PUBLIC "-//W3C//DTD SVG 20010904//EN"
  "http://www.w3.org/TR/2001/REC-SVG-20010904/DTD/svg10.dtd">
<svg version="1.0" xmlns="http://www.w3.org/2000/svg"
     width="512.000000pt" height="512.000000pt" viewBox="0 0 512.000000 512.000000"
     preserveAspectRatio="xMidYMid meet">
  <metadata>
    Created by potrace 1.11, written by Peter Selinger 2001-2013
  </metadata>
  <g transform="translate(0.000000,512.000000) scale(0.100000,-0.100000)"
     fill="#000000" stroke="none">
    <path d="M280 3819 c-55 -25 -95 -62 -123 -114 l-22 -40 0 -1105 0 -1105 22
-41 c29 -54 93 -110 140 -123 54 -15 4472 -15 4528 0 27 7 57 29 92 64 41 42
53 63 63 106 8 40 10 341 8 1129 l-3 1075 -22 41 c-28 53 -91 107 -142 122
-28 9 -604 12 -2267 12 -2221 0 -2229 -1 -2274 -21z m2067 -445 c51 -20 93
-38 93 -40 0 -4 -270 -547 -275 -552 -5 -5 -135 50 -141 60 -6 9 215 568 225
568 3 0 47 -16 98 -36z m-1021 -5 c316 -56 569 -284 651 -589 27 -101 24 -293
-6 -390 -106 -345 -407 -570 -761 -570 -360 0 -674 238 -760 575 -27 107 -28
292 -1 397 95 372 507 643 877 577z m1919 -18 c92 -26 159 -55 184 -80 19 -19
21 -33 21 -139 0 -65 -3 -121 -6 -125 -4 -3 -27 10 -52 29 -112 85 -255 129
-392 121 -345 -21 -579 -362 -490 -711 27 -107 63 -169 145 -252 102 -104 206
-151 355 -161 132 -9 247 28 367 118 29 21 55 39 58 39 3 0 5 -61 5 -134 l0
-135 -64 -30 c-112 -54 -174 -66 -346 -66 -122 0 -168 4 -214 18 -249 77 -448
275 -526 522 -31 99 -38 264 -16 376 34 165 113 306 239 425 116 110 256 179
412 204 84 13 237 4 320 -19z m934 4 c126 -31 214 -100 265 -209 36 -77 49
-149 44 -234 -6 -87 -29 -146 -85 -211 -19 -23 -34 -43 -32 -45 2 -2 28 -16
57 -32 70 -37 145 -120 174 -192 19 -48 23 -76 23 -172 0 -109 -2 -119 -32
-183 -64 -135 -192 -227 -344 -247 -40 -5 -176 -10 -300 -10 -198 0 -228 2
-233 16 -3 9 -6 357 -6 774 0 597 3 760 13 764 26 12 392 -3 456 -19z"/>
    <path d="M1076 3144 c-182 -44 -325 -175 -387 -354 -27 -79 -37 -239 -19 -323
30 -147 155 -308 291 -374 217 -107 450 -74 623 87 78 74 120 136 154 232 34
97 36 259 3 358 -91 285 -375 444 -665 374z"/>
    <path d="M3947 3163 c-4 -3 -7 -107 -7 -229 l0 -224 27 -6 c15 -4 60 -3 100 3
147 21 208 90 207 233 0 123 -53 194 -164 219 -51 12 -153 14 -163 4z"/>
    <path d="M3957 2513 c-16 -4 -17 -22 -15 -241 l3 -237 90 -3 c193 -6 295 34
348 137 60 119 11 257 -111 309 -70 30 -254 51 -315 35z"/>
  </g>
</svg>
