<svg style="position: absolute; width: 0; height: 0; overflow: hidden;" version="1.1" xmlns="http://www.w3.org/2000/svg"
>
  <defs>
    <symbol id="icon-document" viewBox="0 0 32 32">
      <path
        d="M22.242 0h-16.106c-1.081 0-1.962 0.881-1.962 1.962v28.075c0 1.083 0.881 1.963 1.962 1.963h19.728c1.082 0 1.962-0.88 1.962-1.963v-23.969l-5.584-6.068zM22.705 2.937l2.448 2.66h-2.448v-2.66zM26.178 30.037c0 0.173-0.142 0.315-0.315 0.315h-19.727c-0.173 0-0.314-0.142-0.314-0.315v-28.075c0-0.173 0.141-0.314 0.314-0.314h14.92v4.772c0 0.454 0.37 0.823 0.825 0.823h4.297v22.794zM8.729 8.765h13.994c0.341 0 0.617 0.277 0.617 0.617s-0.276 0.617-0.617 0.617h-13.993c-0.341 0-0.617-0.277-0.617-0.617s0.277-0.617 0.617-0.617zM23.34 13.531c0 0.341-0.276 0.617-0.617 0.617h-13.993c-0.341 0-0.617-0.277-0.617-0.617s0.277-0.617 0.617-0.617h13.994c0.341 0 0.617 0.277 0.617 0.617zM23.34 17.544c0 0.341-0.276 0.617-0.617 0.617h-13.993c-0.341 0-0.617-0.276-0.617-0.617s0.277-0.617 0.617-0.617h13.994c0.341 0 0.617 0.276 0.617 0.617zM23.34 21.625c0 0.341-0.276 0.617-0.617 0.617h-13.993c-0.341 0-0.617-0.276-0.617-0.617s0.277-0.617 0.617-0.617h13.994c0.341 0 0.617 0.276 0.617 0.617z"></path>
    </symbol>
    <symbol id="icon-logo" viewBox="0 0 65 32">
      <title>black-logo</title>
      <path fill="#fff" style="fill: var(--color1, #fff)"
            d="M0.473 7.318c0-1.781 0.64-3.283 1.948-4.563 1.28-1.28 2.838-1.92 4.647-1.92 1.781 0 3.339 0.64 4.619 1.92s1.92 2.81 1.92 4.619-0.64 3.339-1.948 4.619-2.866 1.892-4.703 1.892c-1.614 0-3.089-0.557-4.369-1.697-1.419-1.224-2.115-2.866-2.115-4.87zM2.393 7.346c0 1.391 0.473 2.532 1.391 3.423s2.003 1.336 3.228 1.336c1.308 0 2.421-0.445 3.339-1.363s1.363-2.059 1.363-3.367c0-1.336-0.445-2.477-1.336-3.367-0.89-0.918-2.003-1.363-3.311-1.363s-2.421 0.445-3.311 1.363c-0.918 0.89-1.363 2.003-1.363 3.339z"></path>
      <path fill="#fff" style="fill: var(--color1, #fff)"
            d="M15.722 0.529l1.642 0.64-2.337 4.647-1.252-0.501 1.948-4.786z"></path>
      <path fill="#fff" style="fill: var(--color1, #fff)"
            d="M25.767 1.753v2.254c-1.085-0.918-2.226-1.391-3.395-1.391-1.28 0-2.393 0.473-3.256 1.391-0.89 0.918-1.336 2.059-1.336 3.395 0 1.308 0.445 2.421 1.336 3.339s1.976 1.363 3.283 1.363c0.668 0 1.224-0.111 1.697-0.334 0.25-0.111 0.529-0.25 0.807-0.445s0.584-0.417 0.89-0.668v2.282c-1.085 0.612-2.226 0.918-3.423 0.918-1.809 0-3.339-0.64-4.619-1.892-1.28-1.28-1.892-2.783-1.892-4.591 0-1.614 0.529-3.033 1.586-4.285 1.28-1.503 2.977-2.254 5.037-2.254 1.141 0 2.226 0.306 3.283 0.918z"></path>
      <path fill="#fff" style="fill: var(--color1, #fff)"
            d="M26.101 9.628c0-1.141 0.417-2.115 1.224-2.922s1.809-1.197 3.005-1.197 2.198 0.417 3.005 1.224 1.224 1.809 1.224 2.977c0 1.197-0.417 2.198-1.224 3.005-0.835 0.807-1.837 1.197-3.033 1.197s-2.198-0.417-3.005-1.224c-0.807-0.835-1.197-1.837-1.197-3.061zM27.965 9.656c0 0.807 0.223 1.419 0.64 1.892 0.445 0.473 1.002 0.696 1.725 0.696s1.28-0.223 1.725-0.696c0.417-0.473 0.64-1.085 0.64-1.864s-0.223-1.391-0.64-1.864c-0.445-0.473-1.002-0.696-1.725-0.696-0.696 0-1.28 0.223-1.697 0.696-0.445 0.501-0.668 1.113-0.668 1.837z"></path>
      <path fill="#fff" style="fill: var(--color1, #fff)"
            d="M35.172 5.732h1.837v0.723c0.64-0.64 1.363-0.946 2.17-0.946 0.918 0 1.642 0.278 2.17 0.863 0.445 0.501 0.668 1.308 0.668 2.421v4.87h-1.837v-4.424c0-0.779-0.111-1.336-0.334-1.614-0.223-0.306-0.584-0.445-1.169-0.445-0.612 0-1.030 0.195-1.308 0.612-0.25 0.39-0.362 1.085-0.362 2.087v3.84h-1.837v-7.986z"></path>
      <path fill="#fff" style="fill: var(--color1, #fff)"
            d="M42.657 5.732h1.837v0.723c0.64-0.64 1.363-0.946 2.17-0.946 0.918 0 1.642 0.278 2.17 0.863 0.445 0.501 0.668 1.308 0.668 2.421v4.87h-1.837v-4.424c0-0.779-0.111-1.336-0.334-1.614-0.223-0.306-0.584-0.445-1.169-0.445-0.612 0-1.030 0.195-1.308 0.612-0.25 0.39-0.362 1.085-0.362 2.087v3.84h-1.837v-7.986z"></path>
      <path fill="#fff" style="fill: var(--color1, #fff)"
            d="M50.087 9.628c0-1.141 0.417-2.115 1.224-2.922s1.809-1.197 3.005-1.197 2.198 0.417 3.005 1.224c0.807 0.807 1.224 1.809 1.224 2.977 0 1.197-0.417 2.198-1.224 3.005-0.835 0.807-1.837 1.197-3.033 1.197s-2.198-0.417-3.005-1.224c-0.779-0.835-1.197-1.837-1.197-3.061zM51.979 9.656c0 0.807 0.223 1.419 0.64 1.892 0.445 0.473 1.002 0.696 1.725 0.696s1.28-0.223 1.725-0.696c0.417-0.473 0.64-1.085 0.64-1.864s-0.223-1.391-0.64-1.864c-0.445-0.473-1.002-0.696-1.725-0.696-0.696 0-1.28 0.223-1.697 0.696-0.445 0.501-0.668 1.113-0.668 1.837z"></path>
      <path fill="#fff" style="fill: var(--color1, #fff)"
            d="M59.186 5.732h1.837v0.696c0.334-0.362 0.64-0.584 0.89-0.723 0.278-0.139 0.584-0.195 0.946-0.195 0.473 0 1.002 0.167 1.503 0.473l-0.835 1.67c-0.334-0.25-0.696-0.362-1.030-0.362-1.002 0-1.503 0.751-1.503 2.254v4.118h-1.837v-7.93h0.028z"></path>
      <path class="fill"
            d="M0.612 30.776v-14.553h2.17c0.974 0 1.753 0.083 2.337 0.223s1.085 0.417 1.475 0.751c0.417 0.362 0.723 0.835 0.974 1.391s0.362 1.113 0.362 1.697c0 1.030-0.39 1.92-1.197 2.643 0.779 0.25 1.391 0.723 1.837 1.391 0.445 0.64 0.668 1.419 0.668 2.282 0 1.141-0.39 2.087-1.197 2.894-0.473 0.473-1.030 0.807-1.642 1.002-0.668 0.195-1.475 0.278-2.477 0.278h-3.311zM2.783 22.483h0.696c0.807 0 1.419-0.167 1.809-0.529s0.584-0.89 0.584-1.586-0.195-1.197-0.584-1.558c-0.39-0.362-0.946-0.529-1.697-0.529h-0.807v4.202zM2.783 28.717h1.363c1.002 0 1.725-0.195 2.198-0.584 0.501-0.417 0.723-0.946 0.723-1.614 0-0.64-0.223-1.169-0.696-1.586-0.445-0.417-1.28-0.64-2.449-0.64h-1.113l-0.028 4.424z"></path>
      <path class="fill"
            d="M10.407 26.129c0-1.336 0.473-2.449 1.419-3.395 0.946-0.918 2.115-1.391 3.478-1.391s2.532 0.473 3.478 1.391c0.946 0.946 1.419 2.087 1.419 3.45s-0.473 2.532-1.419 3.45-2.115 1.391-3.506 1.391c-1.363 0-2.532-0.473-3.45-1.419-0.946-0.918-1.419-2.087-1.419-3.478zM12.577 26.157c0 0.918 0.25 1.642 0.723 2.17 0.501 0.529 1.169 0.807 1.976 0.807 0.835 0 1.503-0.278 2.003-0.807s0.751-1.252 0.751-2.143-0.25-1.614-0.751-2.143c-0.501-0.529-1.169-0.807-2.003-0.807-0.807 0-1.475 0.278-1.976 0.807-0.473 0.557-0.723 1.28-0.723 2.115z"></path>
      <path class="fill"
            d="M22.456 21.593l2.393 5.231 2.588-6.094 2.616 6.094 2.365-5.231h2.365l-4.814 9.878-2.56-5.899-2.588 5.899-4.758-9.878h2.393z"></path>
      <path class="fill"
            d="M42.24 14.859h2.143v15.917h-2.143v-0.974c-0.835 0.807-1.781 1.224-2.838 1.224-1.252 0-2.31-0.445-3.117-1.363-0.835-0.946-1.224-2.115-1.224-3.506 0-1.363 0.417-2.504 1.224-3.423s1.837-1.391 3.089-1.391c1.085 0 2.031 0.445 2.894 1.308v-7.791h-0.028zM37.203 26.157c0 0.89 0.223 1.586 0.696 2.143s1.085 0.835 1.837 0.835c0.779 0 1.419-0.278 1.892-0.807 0.473-0.557 0.723-1.28 0.723-2.143s-0.25-1.558-0.723-2.143c-0.473-0.557-1.113-0.807-1.892-0.807-0.723 0-1.336 0.278-1.837 0.835-0.445 0.584-0.696 1.28-0.696 2.087z"></path>
      <path class="fill"
            d="M54.65 26.685h-6.595c0.056 0.751 0.306 1.363 0.723 1.809 0.445 0.445 1.002 0.668 1.67 0.668 0.529 0 0.974-0.139 1.308-0.39s0.723-0.723 1.169-1.391l1.781 1.002c-0.278 0.473-0.557 0.863-0.89 1.224-0.306 0.334-0.64 0.612-1.002 0.835s-0.723 0.362-1.141 0.473c-0.417 0.111-0.863 0.139-1.336 0.139-1.363 0-2.477-0.445-3.311-1.308-0.835-0.89-1.252-2.059-1.252-3.534 0-1.447 0.39-2.616 1.197-3.534 0.807-0.89 1.892-1.336 3.228-1.336 1.363 0 2.421 0.417 3.2 1.28s1.169 2.031 1.169 3.562l0.083 0.501zM52.48 24.96c-0.306-1.141-1.002-1.697-2.143-1.697-0.25 0-0.501 0.028-0.723 0.111s-0.445 0.195-0.612 0.334c-0.195 0.139-0.334 0.334-0.473 0.529s-0.223 0.445-0.306 0.696l4.257 0.028z"></path>
      <path class="fill"
            d="M56.209 21.593h2.143v0.835c0.751-0.723 1.586-1.113 2.504-1.113 1.057 0 1.892 0.334 2.504 1.002 0.529 0.584 0.779 1.503 0.779 2.81v5.621h-2.143v-5.092c0-0.918-0.139-1.53-0.39-1.864-0.25-0.362-0.696-0.529-1.336-0.529-0.696 0-1.197 0.223-1.503 0.696-0.278 0.445-0.445 1.252-0.445 2.393v4.424h-2.115v-9.183z"></path>
    </symbol>
    <symbol id="icon-black-logo" viewBox="0 0 65 32">
      <title>black-logo</title>
      <path
        d="M0.473 7.318c0-1.781 0.64-3.283 1.948-4.563 1.28-1.28 2.838-1.92 4.647-1.92 1.781 0 3.339 0.64 4.619 1.92s1.92 2.81 1.92 4.619-0.64 3.339-1.948 4.619-2.866 1.892-4.703 1.892c-1.614 0-3.089-0.557-4.369-1.697-1.419-1.224-2.115-2.866-2.115-4.87zM2.393 7.346c0 1.391 0.473 2.532 1.391 3.423s2.003 1.336 3.228 1.336c1.308 0 2.421-0.445 3.339-1.363s1.363-2.059 1.363-3.367c0-1.336-0.445-2.477-1.336-3.367-0.89-0.918-2.003-1.363-3.311-1.363s-2.421 0.445-3.311 1.363c-0.918 0.89-1.363 2.003-1.363 3.339z"></path>
      <path d="M15.722 0.529l1.642 0.64-2.337 4.647-1.252-0.501 1.948-4.786z"></path>
      <path
        d="M25.767 1.753v2.254c-1.085-0.918-2.226-1.391-3.395-1.391-1.28 0-2.393 0.473-3.256 1.391-0.89 0.918-1.336 2.059-1.336 3.395 0 1.308 0.445 2.421 1.336 3.339s1.976 1.363 3.283 1.363c0.668 0 1.224-0.111 1.697-0.334 0.25-0.111 0.529-0.25 0.807-0.445s0.584-0.417 0.89-0.668v2.282c-1.085 0.612-2.226 0.918-3.423 0.918-1.809 0-3.339-0.64-4.619-1.892-1.28-1.28-1.892-2.783-1.892-4.591 0-1.614 0.529-3.033 1.586-4.285 1.28-1.503 2.977-2.254 5.037-2.254 1.141 0 2.226 0.306 3.283 0.918z"></path>
      <path
        d="M26.101 9.628c0-1.141 0.417-2.115 1.224-2.922s1.809-1.197 3.005-1.197 2.198 0.417 3.005 1.224 1.224 1.809 1.224 2.977c0 1.197-0.417 2.198-1.224 3.005-0.835 0.807-1.837 1.197-3.033 1.197s-2.198-0.417-3.005-1.224c-0.807-0.835-1.197-1.837-1.197-3.061zM27.965 9.656c0 0.807 0.223 1.419 0.64 1.892 0.445 0.473 1.002 0.696 1.725 0.696s1.28-0.223 1.725-0.696c0.417-0.473 0.64-1.085 0.64-1.864s-0.223-1.391-0.64-1.864c-0.445-0.473-1.002-0.696-1.725-0.696-0.696 0-1.28 0.223-1.697 0.696-0.445 0.501-0.668 1.113-0.668 1.837z"></path>
      <path
        d="M35.172 5.732h1.837v0.723c0.64-0.64 1.363-0.946 2.17-0.946 0.918 0 1.642 0.278 2.17 0.863 0.445 0.501 0.668 1.308 0.668 2.421v4.87h-1.837v-4.424c0-0.779-0.111-1.336-0.334-1.614-0.223-0.306-0.584-0.445-1.169-0.445-0.612 0-1.030 0.195-1.308 0.612-0.25 0.39-0.362 1.085-0.362 2.087v3.84h-1.837v-7.986z"></path>
      <path
        d="M42.657 5.732h1.837v0.723c0.64-0.64 1.363-0.946 2.17-0.946 0.918 0 1.642 0.278 2.17 0.863 0.445 0.501 0.668 1.308 0.668 2.421v4.87h-1.837v-4.424c0-0.779-0.111-1.336-0.334-1.614-0.223-0.306-0.584-0.445-1.169-0.445-0.612 0-1.030 0.195-1.308 0.612-0.25 0.39-0.362 1.085-0.362 2.087v3.84h-1.837v-7.986z"></path>
      <path
        d="M50.087 9.628c0-1.141 0.417-2.115 1.224-2.922s1.809-1.197 3.005-1.197 2.198 0.417 3.005 1.224c0.807 0.807 1.224 1.809 1.224 2.977 0 1.197-0.417 2.198-1.224 3.005-0.835 0.807-1.837 1.197-3.033 1.197s-2.198-0.417-3.005-1.224c-0.779-0.835-1.197-1.837-1.197-3.061zM51.979 9.656c0 0.807 0.223 1.419 0.64 1.892 0.445 0.473 1.002 0.696 1.725 0.696s1.28-0.223 1.725-0.696c0.417-0.473 0.64-1.085 0.64-1.864s-0.223-1.391-0.64-1.864c-0.445-0.473-1.002-0.696-1.725-0.696-0.696 0-1.28 0.223-1.697 0.696-0.445 0.501-0.668 1.113-0.668 1.837z"></path>
      <path
        d="M59.186 5.732h1.837v0.696c0.334-0.362 0.64-0.584 0.89-0.723 0.278-0.139 0.584-0.195 0.946-0.195 0.473 0 1.002 0.167 1.503 0.473l-0.835 1.67c-0.334-0.25-0.696-0.362-1.030-0.362-1.002 0-1.503 0.751-1.503 2.254v4.118h-1.837v-7.93h0.028z"></path>
      <path class="fill"
            d="M0.612 30.776v-14.553h2.17c0.974 0 1.753 0.083 2.337 0.223s1.085 0.417 1.475 0.751c0.417 0.362 0.723 0.835 0.974 1.391s0.362 1.113 0.362 1.697c0 1.030-0.39 1.92-1.197 2.643 0.779 0.25 1.391 0.723 1.837 1.391 0.445 0.64 0.668 1.419 0.668 2.282 0 1.141-0.39 2.087-1.197 2.894-0.473 0.473-1.030 0.807-1.642 1.002-0.668 0.195-1.475 0.278-2.477 0.278h-3.311zM2.783 22.483h0.696c0.807 0 1.419-0.167 1.809-0.529s0.584-0.89 0.584-1.586-0.195-1.197-0.584-1.558c-0.39-0.362-0.946-0.529-1.697-0.529h-0.807v4.202zM2.783 28.717h1.363c1.002 0 1.725-0.195 2.198-0.584 0.501-0.417 0.723-0.946 0.723-1.614 0-0.64-0.223-1.169-0.696-1.586-0.445-0.417-1.28-0.64-2.449-0.64h-1.113l-0.028 4.424z"></path>
      <path class="fill"
            d="M10.407 26.129c0-1.336 0.473-2.449 1.419-3.395 0.946-0.918 2.115-1.391 3.478-1.391s2.532 0.473 3.478 1.391c0.946 0.946 1.419 2.087 1.419 3.45s-0.473 2.532-1.419 3.45-2.115 1.391-3.506 1.391c-1.363 0-2.532-0.473-3.45-1.419-0.946-0.918-1.419-2.087-1.419-3.478zM12.577 26.157c0 0.918 0.25 1.642 0.723 2.17 0.501 0.529 1.169 0.807 1.976 0.807 0.835 0 1.503-0.278 2.003-0.807s0.751-1.252 0.751-2.143-0.25-1.614-0.751-2.143c-0.501-0.529-1.169-0.807-2.003-0.807-0.807 0-1.475 0.278-1.976 0.807-0.473 0.557-0.723 1.28-0.723 2.115z"></path>
      <path class="fill"
            d="M22.456 21.593l2.393 5.231 2.588-6.094 2.616 6.094 2.365-5.231h2.365l-4.814 9.878-2.56-5.899-2.588 5.899-4.758-9.878h2.393z"></path>
      <path class="fill"
            d="M42.24 14.859h2.143v15.917h-2.143v-0.974c-0.835 0.807-1.781 1.224-2.838 1.224-1.252 0-2.31-0.445-3.117-1.363-0.835-0.946-1.224-2.115-1.224-3.506 0-1.363 0.417-2.504 1.224-3.423s1.837-1.391 3.089-1.391c1.085 0 2.031 0.445 2.894 1.308v-7.791h-0.028zM37.203 26.157c0 0.89 0.223 1.586 0.696 2.143s1.085 0.835 1.837 0.835c0.779 0 1.419-0.278 1.892-0.807 0.473-0.557 0.723-1.28 0.723-2.143s-0.25-1.558-0.723-2.143c-0.473-0.557-1.113-0.807-1.892-0.807-0.723 0-1.336 0.278-1.837 0.835-0.445 0.584-0.696 1.28-0.696 2.087z"></path>
      <path class="fill"
            d="M54.65 26.685h-6.595c0.056 0.751 0.306 1.363 0.723 1.809 0.445 0.445 1.002 0.668 1.67 0.668 0.529 0 0.974-0.139 1.308-0.39s0.723-0.723 1.169-1.391l1.781 1.002c-0.278 0.473-0.557 0.863-0.89 1.224-0.306 0.334-0.64 0.612-1.002 0.835s-0.723 0.362-1.141 0.473c-0.417 0.111-0.863 0.139-1.336 0.139-1.363 0-2.477-0.445-3.311-1.308-0.835-0.89-1.252-2.059-1.252-3.534 0-1.447 0.39-2.616 1.197-3.534 0.807-0.89 1.892-1.336 3.228-1.336 1.363 0 2.421 0.417 3.2 1.28s1.169 2.031 1.169 3.562l0.083 0.501zM52.48 24.96c-0.306-1.141-1.002-1.697-2.143-1.697-0.25 0-0.501 0.028-0.723 0.111s-0.445 0.195-0.612 0.334c-0.195 0.139-0.334 0.334-0.473 0.529s-0.223 0.445-0.306 0.696l4.257 0.028z"></path>
      <path class="fill"
            d="M56.209 21.593h2.143v0.835c0.751-0.723 1.586-1.113 2.504-1.113 1.057 0 1.892 0.334 2.504 1.002 0.529 0.584 0.779 1.503 0.779 2.81v5.621h-2.143v-5.092c0-0.918-0.139-1.53-0.39-1.864-0.25-0.362-0.696-0.529-1.336-0.529-0.696 0-1.197 0.223-1.503 0.696-0.278 0.445-0.445 1.252-0.445 2.393v4.424h-2.115v-9.183z"></path>
    </symbol>
    <symbol id="icon-quotes-left" viewBox="0 0 32 32">
      <title>quotes-left</title>
      <path
        d="M7.031 14c3.866 0 7 3.134 7 7s-3.134 7-7 7-7-3.134-7-7l-0.031-1c0-7.732 6.268-14 14-14v4c-2.671 0-5.182 1.040-7.071 2.929-0.364 0.364-0.695 0.751-0.995 1.157 0.357-0.056 0.724-0.086 1.097-0.086zM25.031 14c3.866 0 7 3.134 7 7s-3.134 7-7 7-7-3.134-7-7l-0.031-1c0-7.732 6.268-14 14-14v4c-2.671 0-5.182 1.040-7.071 2.929-0.364 0.364-0.695 0.751-0.995 1.157 0.358-0.056 0.724-0.086 1.097-0.086z"></path>
    </symbol>
    <symbol id="icon-quotes-right" viewBox="0 0 32 32">
      <title>quotes-right</title>
      <path
        d="M25 20c-3.866 0-7-3.134-7-7s3.134-7 7-7 7 3.134 7 7l0.031 1c0 7.732-6.268 14-14 14v-4c2.671 0 5.182-1.040 7.071-2.929 0.364-0.364 0.695-0.75 0.995-1.157-0.357 0.056-0.724 0.086-1.097 0.086zM7 20c-3.866 0-7-3.134-7-7s3.134-7 7-7 7 3.134 7 7l0.031 1c0 7.732-6.268 14-14 14v-4c2.671 0 5.182-1.040 7.071-2.929 0.364-0.364 0.695-0.75 0.995-1.157-0.357 0.056-0.724 0.086-1.097 0.086z"></path>
    </symbol>
    <symbol id="icon-facebook" viewBox="0 0 32 32">
      <title>facebook</title>
      <path d="M19 6h5v-6h-5c-3.86 0-7 3.14-7 7v3h-4v6h4v16h6v-16h5l1-6h-6v-3c0-0.542 0.458-1 1-1z"></path>
    </symbol>
    <symbol id="icon-instagram" viewBox="0 0 32 32">
      <title>instagram</title>
      <path
        d="M16 2.881c4.275 0 4.781 0.019 6.462 0.094 1.563 0.069 2.406 0.331 2.969 0.55 0.744 0.288 1.281 0.638 1.837 1.194 0.563 0.563 0.906 1.094 1.2 1.838 0.219 0.563 0.481 1.412 0.55 2.969 0.075 1.688 0.094 2.194 0.094 6.463s-0.019 4.781-0.094 6.463c-0.069 1.563-0.331 2.406-0.55 2.969-0.288 0.744-0.637 1.281-1.194 1.837-0.563 0.563-1.094 0.906-1.837 1.2-0.563 0.219-1.413 0.481-2.969 0.55-1.688 0.075-2.194 0.094-6.463 0.094s-4.781-0.019-6.463-0.094c-1.563-0.069-2.406-0.331-2.969-0.55-0.744-0.288-1.281-0.637-1.838-1.194-0.563-0.563-0.906-1.094-1.2-1.837-0.219-0.563-0.481-1.413-0.55-2.969-0.075-1.688-0.094-2.194-0.094-6.463s0.019-4.781 0.094-6.463c0.069-1.563 0.331-2.406 0.55-2.969 0.288-0.744 0.638-1.281 1.194-1.838 0.563-0.563 1.094-0.906 1.838-1.2 0.563-0.219 1.412-0.481 2.969-0.55 1.681-0.075 2.188-0.094 6.463-0.094zM16 0c-4.344 0-4.887 0.019-6.594 0.094-1.7 0.075-2.869 0.35-3.881 0.744-1.056 0.412-1.95 0.956-2.837 1.85-0.894 0.888-1.438 1.781-1.85 2.831-0.394 1.019-0.669 2.181-0.744 3.881-0.075 1.713-0.094 2.256-0.094 6.6s0.019 4.887 0.094 6.594c0.075 1.7 0.35 2.869 0.744 3.881 0.413 1.056 0.956 1.95 1.85 2.837 0.887 0.887 1.781 1.438 2.831 1.844 1.019 0.394 2.181 0.669 3.881 0.744 1.706 0.075 2.25 0.094 6.594 0.094s4.888-0.019 6.594-0.094c1.7-0.075 2.869-0.35 3.881-0.744 1.050-0.406 1.944-0.956 2.831-1.844s1.438-1.781 1.844-2.831c0.394-1.019 0.669-2.181 0.744-3.881 0.075-1.706 0.094-2.25 0.094-6.594s-0.019-4.887-0.094-6.594c-0.075-1.7-0.35-2.869-0.744-3.881-0.394-1.063-0.938-1.956-1.831-2.844-0.887-0.887-1.781-1.438-2.831-1.844-1.019-0.394-2.181-0.669-3.881-0.744-1.712-0.081-2.256-0.1-6.6-0.1v0z"></path>
      <path
        d="M16 7.781c-4.537 0-8.219 3.681-8.219 8.219s3.681 8.219 8.219 8.219 8.219-3.681 8.219-8.219c0-4.537-3.681-8.219-8.219-8.219zM16 21.331c-2.944 0-5.331-2.387-5.331-5.331s2.387-5.331 5.331-5.331c2.944 0 5.331 2.387 5.331 5.331s-2.387 5.331-5.331 5.331z"></path>
      <path
        d="M26.462 7.456c0 1.060-0.859 1.919-1.919 1.919s-1.919-0.859-1.919-1.919c0-1.060 0.859-1.919 1.919-1.919s1.919 0.859 1.919 1.919z"></path>
    </symbol>
    <symbol id="icon-twitter" viewBox="0 0 32 32">
      <title>twitter</title>
      <path
        d="M32 7.075c-1.175 0.525-2.444 0.875-3.769 1.031 1.356-0.813 2.394-2.1 2.887-3.631-1.269 0.75-2.675 1.3-4.169 1.594-1.2-1.275-2.906-2.069-4.794-2.069-3.625 0-6.563 2.938-6.563 6.563 0 0.512 0.056 1.012 0.169 1.494-5.456-0.275-10.294-2.888-13.531-6.862-0.563 0.969-0.887 2.1-0.887 3.3 0 2.275 1.156 4.287 2.919 5.463-1.075-0.031-2.087-0.331-2.975-0.819 0 0.025 0 0.056 0 0.081 0 3.181 2.263 5.838 5.269 6.437-0.55 0.15-1.131 0.231-1.731 0.231-0.425 0-0.831-0.044-1.237-0.119 0.838 2.606 3.263 4.506 6.131 4.563-2.25 1.762-5.075 2.813-8.156 2.813-0.531 0-1.050-0.031-1.569-0.094 2.913 1.869 6.362 2.95 10.069 2.95 12.075 0 18.681-10.006 18.681-18.681 0-0.287-0.006-0.569-0.019-0.85 1.281-0.919 2.394-2.075 3.275-3.394z"></path>
    </symbol>
    <symbol id="icon-linkedin" viewBox="0 0 32 32">
      <title>linkedin</title>
      <path
        d="M12 12h5.535v2.837h0.079c0.77-1.381 2.655-2.837 5.464-2.837 5.842 0 6.922 3.637 6.922 8.367v9.633h-5.769v-8.54c0-2.037-0.042-4.657-3.001-4.657-3.005 0-3.463 2.218-3.463 4.509v8.688h-5.767v-18z"></path>
      <path d="M2 12h6v18h-6v-18z"></path>
      <path d="M8 7c0 1.657-1.343 3-3 3s-3-1.343-3-3c0-1.657 1.343-3 3-3s3 1.343 3 3z"></path>
    </symbol>
    <symbol id="icon-arrow-up" viewBox="0 0 32 32">
      <title>arrow-up</title>
      <path
        d="M31.68 21.932l-14.943-14.942c-0.213-0.214-0.459-0.321-0.737-0.321s-0.524 0.107-0.738 0.321l-14.942 14.942c-0.214 0.214-0.321 0.46-0.321 0.738s0.107 0.524 0.321 0.737l1.603 1.603c0.214 0.214 0.46 0.321 0.738 0.321s0.524-0.107 0.738-0.321l12.601-12.601 12.602 12.602c0.214 0.214 0.46 0.32 0.737 0.32s0.524-0.107 0.738-0.32l1.603-1.603c0.214-0.214 0.32-0.46 0.32-0.737s-0.106-0.524-0.32-0.738z"></path>
    </symbol>
    <symbol id="icon-home" viewBox="0 0 32 32">
      <title>home</title>
      <path d="M32 18.451l-16-12.42-16 12.42v-5.064l16-12.42 16 12.42zM28 18v12h-8v-8h-8v8h-8v-12l12-9z"></path>
    </symbol>
    <symbol id="icon-squares" viewBox="0 0 32 32">
      <title>squares</title>
      <path
        d="M8.748 0.995c0-0.55-0.444-0.995-0.995-0.995h-6.697c-0.55 0-0.995 0.444-0.995 0.995v6.7c0 0.55 0.444 0.995 0.995 0.995h6.7c0.55 0 0.995-0.444 0.995-0.995v-6.7h-0.003z"></path>
      <path
        d="M20.341 0.995c0-0.55-0.444-0.995-0.995-0.995h-6.697c-0.55 0-0.995 0.444-0.995 0.995v6.7c0 0.55 0.444 0.995 0.995 0.995h6.697c0.55 0 0.995-0.444 0.995-0.995v-6.7z"></path>
      <path
        d="M31.935 0.995c0-0.55-0.444-0.995-0.995-0.995h-6.697c-0.55 0-0.995 0.444-0.995 0.995v6.7c0 0.55 0.444 0.995 0.995 0.995h6.7c0.55 0 0.995-0.444 0.995-0.995v-6.7h-0.003z"></path>
      <path
        d="M8.748 12.651c0-0.55-0.444-0.995-0.995-0.995h-6.697c-0.55 0-0.995 0.444-0.995 0.995v6.697c0 0.55 0.444 0.995 0.995 0.995h6.7c0.55 0 0.995-0.444 0.995-0.995v-6.697h-0.003z"></path>
      <path
        d="M20.341 12.651c0-0.55-0.444-0.995-0.995-0.995h-6.697c-0.55 0-0.995 0.444-0.995 0.995v6.697c0 0.55 0.444 0.995 0.995 0.995h6.697c0.55 0 0.995-0.444 0.995-0.995v-6.697z"></path>
      <path
        d="M31.935 12.651c0-0.55-0.444-0.995-0.995-0.995h-6.697c-0.55 0-0.995 0.444-0.995 0.995v6.697c0 0.55 0.444 0.995 0.995 0.995h6.7c0.55 0 0.995-0.444 0.995-0.995v-6.697h-0.003z"></path>
      <path
        d="M7.753 23.31h-6.697c-0.55 0-0.995 0.444-0.995 0.995v6.7c0 0.55 0.444 0.995 0.995 0.995h6.7c0.55 0 0.995-0.444 0.995-0.995v-6.7c-0.003-0.547-0.448-0.995-0.998-0.995z"></path>
      <path
        d="M19.347 23.31h-6.697c-0.55 0-0.995 0.444-0.995 0.995v6.7c0 0.55 0.444 0.995 0.995 0.995h6.697c0.55 0 0.995-0.444 0.995-0.995v-6.7c0-0.547-0.444-0.995-0.995-0.995z"></path>
      <path
        d="M30.941 23.31h-6.697c-0.55 0-0.995 0.444-0.995 0.995v6.7c0 0.55 0.444 0.995 0.995 0.995h6.7c0.55 0 0.995-0.444 0.995-0.995v-6.7c-0.003-0.547-0.448-0.995-0.998-0.995z"></path>
    </symbol>
    <symbol id="icon-dots" viewBox="0 0 32 32">
      <title>dots</title>
      <path d="M20 16c0 2.209-1.791 4-4 4s-4-1.791-4-4c0-2.209 1.791-4 4-4s4 1.791 4 4z"></path>
      <path d="M20 28c0 2.209-1.791 4-4 4s-4-1.791-4-4c0-2.209 1.791-4 4-4s4 1.791 4 4z"></path>
      <path d="M20 4c0 2.209-1.791 4-4 4s-4-1.791-4-4c0-2.209 1.791-4 4-4s4 1.791 4 4z"></path>
    </symbol>
    <symbol id="icon-bath" viewBox="0 0 32 32">
      <title>bath</title>
      <path
        d="M30 15.941h-28c-1.103 0-2 0.897-2 2s0.897 2 2 2h28c1.103 0 2-0.897 2-2s-0.897-2-2-2zM30 18.607h-28c-0.367 0-0.667-0.299-0.667-0.667s0.3-0.667 0.667-0.667h28c0.367 0 0.667 0.299 0.667 0.667s-0.3 0.667-0.667 0.667z"></path>
      <path
        d="M30.184 18.633c-0.361-0.1-0.724 0.104-0.824 0.459l-1.837 6.432c-0.407 1.423-1.725 2.417-3.205 2.417h-16.633c-1.48 0-2.797-0.995-3.205-2.417l-1.837-6.432c-0.1-0.355-0.464-0.559-0.824-0.459-0.355 0.101-0.559 0.469-0.457 0.824l1.837 6.432c0.569 1.993 2.413 3.385 4.487 3.385h16.632c2.073 0 3.919-1.392 4.488-3.385l1.837-6.432c0.101-0.353-0.103-0.723-0.457-0.824z"></path>
      <path
        d="M7.684 25.275c-0.296 0-0.559-0.2-0.641-0.484l-0.865-3.032c-0.1-0.353-0.467-0.56-0.824-0.459-0.353 0.101-0.559 0.469-0.457 0.824l0.865 3.032c0.243 0.855 1.035 1.451 1.923 1.451 0.368 0 0.667-0.297 0.667-0.665s-0.299-0.667-0.667-0.667z"></path>
      <path
        d="M8.964 28.010c-0.329-0.161-0.728-0.032-0.895 0.299l-1.333 2.667c-0.164 0.329-0.031 0.729 0.299 0.895 0.097 0.048 0.199 0.071 0.299 0.071 0.244 0 0.479-0.135 0.596-0.369l1.333-2.667c0.164-0.329 0.031-0.729-0.299-0.895z"></path>
      <path
        d="M25.264 30.977l-1.333-2.667c-0.165-0.331-0.565-0.463-0.895-0.299-0.329 0.165-0.463 0.565-0.299 0.895l1.333 2.667c0.117 0.233 0.352 0.368 0.596 0.368 0.1 0 0.201-0.023 0.299-0.069 0.329-0.165 0.463-0.565 0.299-0.895z"></path>
      <path
        d="M26.78 0.059c-0.68 0-1.32 0.265-1.801 0.747l-2.116 2.116c-0.26 0.26-0.26 0.683 0 0.943s0.683 0.26 0.943 0l2.116-2.115c0.228-0.229 0.533-0.356 0.865-0.356 0.669 0 1.213 0.544 1.213 1.213v14c0 0.368 0.299 0.667 0.667 0.667s0.667-0.299 0.668-0.668v-14c0-1.404-1.141-2.547-2.555-2.547z"></path>
      <path
        d="M24.473 3.59l-1.333-1.333c-0.153-0.153-0.365-0.224-0.58-0.187l-3.333 0.547c-0.245 0.039-0.447 0.212-0.525 0.448s-0.019 0.496 0.155 0.673l4 4.12c0.125 0.132 0.3 0.203 0.477 0.203 0.063 0 0.127-0.009 0.191-0.027 0.237-0.069 0.417-0.265 0.465-0.508l0.667-3.333c0.044-0.219-0.025-0.445-0.183-0.603zM22.928 6.019l-2.228-2.295 1.737-0.284 0.839 0.839-0.348 1.74z"></path>
      <path
        d="M15.804 8.137c-0.26-0.26-0.683-0.26-0.943 0l-1.333 1.333c-0.26 0.26-0.26 0.683 0 0.943 0.131 0.129 0.301 0.195 0.472 0.195s0.341-0.065 0.471-0.195l1.333-1.333c0.26-0.26 0.26-0.683 0-0.943z"></path>
      <path
        d="M18.471 10.803c-0.26-0.26-0.683-0.26-0.943 0l-1.333 1.333c-0.26 0.26-0.26 0.683 0 0.943 0.131 0.129 0.301 0.195 0.472 0.195s0.341-0.065 0.471-0.195l1.333-1.333c0.26-0.26 0.26-0.683 0-0.943z"></path>
      <path
        d="M19.804 6.803c-0.26-0.26-0.683-0.26-0.943 0l-1.333 1.333c-0.26 0.26-0.26 0.683 0 0.943 0.131 0.129 0.301 0.195 0.472 0.195s0.341-0.065 0.471-0.195l1.333-1.333c0.26-0.26 0.26-0.683 0-0.943z"></path>
    </symbol>
    <symbol id="icon-bed" viewBox="0 0 32 32">
      <title>bed</title>
      <path
        d="M29.333 14.068v-6.068c0-1.837-1.496-3.333-3.333-3.333h-20c-1.837 0-3.333 1.496-3.333 3.333v6.068c-1.519 0.309-2.667 1.656-2.667 3.265v9.333c0 0.368 0.299 0.667 0.667 0.667s0.667-0.299 0.667-0.667v-2h29.333v2c0 0.368 0.299 0.667 0.667 0.667s0.667-0.299 0.667-0.667v-9.333c-0-1.609-1.148-2.956-2.667-3.265zM4 8c0-1.103 0.897-2 2-2h20c1.103 0 2 0.897 2 2v6h-1.835c0.131-0.367 0.164-0.763 0.067-1.152l-0.667-2.667c-0.223-0.892-1.021-1.515-1.94-1.515h-4.292c-1.103 0-2 0.897-2 2v2.667c0 0.235 0.048 0.457 0.123 0.667h-2.912c0.075-0.209 0.123-0.432 0.123-0.667v-2.667c0-1.103-0.897-2-2-2h-4.292c-0.919 0-1.717 0.624-1.94 1.515l-0.667 2.667c-0.097 0.389-0.064 0.785 0.067 1.152h-1.835v-6zM24.817 13.744c-0.127 0.163-0.319 0.256-0.525 0.256h-4.959c-0.368 0-0.667-0.299-0.667-0.667v-2.667c0-0.368 0.299-0.667 0.667-0.667h4.292c0.307 0 0.572 0.208 0.647 0.505l0.667 2.667c0.051 0.2 0.007 0.409-0.121 0.572zM13.332 10.665v2.667c0 0.368-0.299 0.667-0.667 0.667h-4.959c-0.207 0-0.399-0.093-0.525-0.256s-0.172-0.372-0.121-0.572l0.667-2.667c0.076-0.296 0.341-0.504 0.647-0.505h4.292c0.368 0 0.667 0.299 0.667 0.667zM30.667 23.333h-29.333v-1.333h29.333v1.333zM30.667 20.667h-29.333v-3.333c0-1.103 0.897-2 2-2h25.333c1.103 0 2 0.897 2 2v3.333z"></path>
    </symbol>
    <symbol id="icon-camera" viewBox="0 0 32 32">
      <title>camera</title>
      <path
        d="M0 10.962v14.119c0 2.155 1.75 3.905 3.905 3.905h24.189c2.155 0 3.905-1.75 3.905-3.905v-14.119c0-2.051-1.665-3.716-3.716-3.716h-5.198l-0.124-0.542c-0.503-2.175-2.416-3.69-4.65-3.69h-4.63c-2.227 0-4.14 1.515-4.65 3.69l-0.124 0.542h-5.192c-2.051 0-3.716 1.672-3.716 3.716zM9.548 8.846c0.372 0 0.692-0.255 0.777-0.62l0.268-1.162c0.34-1.443 1.607-2.449 3.089-2.449h4.63c1.482 0 2.749 1.006 3.089 2.449l0.268 1.162c0.085 0.359 0.405 0.62 0.777 0.62h5.832c1.169 0 2.116 0.947 2.116 2.116v14.119c0 1.273-1.032 2.305-2.305 2.305h-24.183c-1.273 0-2.305-1.032-2.305-2.305v-14.119c0-1.169 0.947-2.116 2.116-2.116h5.832z"></path>
      <path
        d="M6.485 12.261c0 0.591-0.479 1.071-1.071 1.071s-1.071-0.479-1.071-1.071c0-0.591 0.479-1.071 1.071-1.071s1.071 0.479 1.071 1.071z"></path>
      <path
        d="M16 24.878c3.703 0 6.72-3.017 6.72-6.72s-3.017-6.72-6.72-6.72-6.72 3.011-6.72 6.72 3.017 6.72 6.72 6.72zM16 13.038c2.821 0 5.12 2.299 5.12 5.12s-2.299 5.12-5.12 5.12-5.12-2.299-5.12-5.12 2.299-5.12 5.12-5.12z"></path>
    </symbol>
    <symbol id="icon-grid" viewBox="0 0 32 32">
      <title>grid</title>
      <path
        d="M3.478 0c-0.384 0-0.696 0.312-0.696 0.696v30.609c0 0.384 0.312 0.696 0.696 0.696s0.696-0.312 0.696-0.696v-30.609c0-0.384-0.312-0.696-0.696-0.696z"></path>
      <path
        d="M11.826 0c-0.384 0-0.696 0.312-0.696 0.696v30.609c0 0.384 0.312 0.696 0.696 0.696s0.696-0.312 0.696-0.696v-30.609c0-0.384-0.312-0.696-0.696-0.696z"></path>
      <path
        d="M20.174 0c-0.384 0-0.696 0.312-0.696 0.696v30.609c0 0.384 0.312 0.696 0.696 0.696s0.696-0.312 0.696-0.696v-30.609c0-0.384-0.312-0.696-0.696-0.696z"></path>
      <path
        d="M28.522 0c-0.384 0-0.696 0.312-0.696 0.696v30.609c0 0.384 0.312 0.696 0.696 0.696s0.696-0.312 0.696-0.696v-30.609c0-0.384-0.312-0.696-0.696-0.696z"></path>
      <path
        d="M31.304 27.826h-30.609c-0.384 0-0.696 0.312-0.696 0.696s0.312 0.696 0.696 0.696h30.609c0.384 0 0.696-0.312 0.696-0.696s-0.312-0.696-0.696-0.696z"></path>
      <path
        d="M31.304 19.478h-30.609c-0.384 0-0.696 0.312-0.696 0.696s0.312 0.696 0.696 0.696h30.609c0.384 0 0.696-0.312 0.696-0.696s-0.312-0.696-0.696-0.696z"></path>
      <path
        d="M31.304 11.13h-30.609c-0.384 0-0.696 0.312-0.696 0.696s0.312 0.696 0.696 0.696h30.609c0.384 0 0.696-0.312 0.696-0.696s-0.312-0.696-0.696-0.696z"></path>
      <path
        d="M31.304 2.783h-30.609c-0.384 0-0.696 0.312-0.696 0.696s0.312 0.696 0.696 0.696h30.609c0.384 0 0.696-0.312 0.696-0.696s-0.312-0.696-0.696-0.696z"></path>
    </symbol>
    <symbol id="icon-list" viewBox="0 0 32 32">
      <title>list</title>
      <path
        d="M2.096 9.216h5.008c1.156 0 2.096-0.94 2.096-2.096v-5.008c0-1.156-0.94-2.096-2.096-2.096h-5.008c-1.156 0-2.096 0.94-2.096 2.096v5.008c0 1.156 0.94 2.096 2.096 2.096zM1.6 2.112c0-0.274 0.222-0.496 0.496-0.496h5.008c0.274 0 0.496 0.222 0.496 0.496v5.008c0 0.274-0.222 0.496-0.496 0.496h-5.008c-0.274 0-0.496-0.222-0.496-0.496v-5.008z"></path>
      <path
        d="M0 18.507c0 1.156 0.94 2.096 2.096 2.096h5.008c1.156 0 2.096-0.94 2.096-2.096v-5.008c0-1.156-0.94-2.096-2.096-2.096h-5.008c-1.156 0-2.096 0.94-2.096 2.096v5.008zM1.6 13.493c0-0.274 0.222-0.496 0.496-0.496h5.008c0.274 0 0.496 0.222 0.496 0.496v5.008c0 0.274-0.222 0.496-0.496 0.496h-5.008c-0.274 0-0.496-0.222-0.496-0.496v-5.008z"></path>
      <path
        d="M0 29.888c0 1.156 0.94 2.096 2.096 2.096h5.008c1.156 0 2.096-0.94 2.096-2.096v-5.008c0-1.156-0.94-2.096-2.096-2.096h-5.008c-1.156 0-2.096 0.94-2.096 2.096v5.008zM1.6 24.88c0-0.274 0.222-0.496 0.496-0.496h5.008c0.274 0 0.496 0.222 0.496 0.496v5.008c0 0.274-0.222 0.496-0.496 0.496h-5.008c-0.274 0-0.496-0.222-0.496-0.496v-5.008z"></path>
      <path
        d="M31.197 2.073h-17.988c-0.444 0-0.803 0.359-0.803 0.803s0.359 0.803 0.803 0.803h17.988c0.444 0 0.803-0.359 0.803-0.803s-0.359-0.803-0.803-0.803z"></path>
      <path
        d="M31.197 5.56h-17.988c-0.444 0-0.803 0.359-0.803 0.803s0.359 0.803 0.803 0.803h17.988c0.444 0 0.803-0.359 0.803-0.803-0.007-0.444-0.359-0.803-0.803-0.803z"></path>
      <path
        d="M31.197 13.454h-17.988c-0.444 0-0.803 0.359-0.803 0.803s0.359 0.803 0.803 0.803h17.988c0.444 0 0.803-0.359 0.803-0.803-0.007-0.444-0.359-0.803-0.803-0.803z"></path>
      <path
        d="M31.197 16.947h-17.988c-0.444 0-0.803 0.359-0.803 0.803s0.359 0.803 0.803 0.803h17.988c0.444 0 0.803-0.359 0.803-0.803-0.007-0.444-0.359-0.803-0.803-0.803z"></path>
      <path
        d="M31.197 24.841h-17.988c-0.444 0-0.803 0.359-0.803 0.803s0.359 0.803 0.803 0.803h17.988c0.444 0 0.803-0.359 0.803-0.803-0.007-0.444-0.359-0.803-0.803-0.803z"></path>
      <path
        d="M31.993 29.13c0-0.444-0.359-0.803-0.803-0.803h-17.982c-0.444 0-0.803 0.359-0.803 0.803s0.359 0.803 0.803 0.803h17.988c0.444-0.007 0.797-0.366 0.797-0.803z"></path>
    </symbol>
    <symbol id="icon-city" viewBox="0 0 32 32">
      <title>city</title>
      <path
        d="M20.267 20.8c0-0.294-0.239-0.533-0.533-0.533s-0.533 0.239-0.533 0.533v1.067c0 0.294 0.239 0.533 0.533 0.533s0.533-0.239 0.533-0.533v-1.067z"></path>
      <path
        d="M19.733 26.667c-0.294 0-0.533 0.239-0.533 0.533v2.133c0 0.294 0.239 0.533 0.533 0.533s0.533-0.239 0.533-0.533v-2.133c0-0.294-0.239-0.533-0.533-0.533z"></path>
      <path
        d="M22.4 14.4c0-0.294-0.239-0.533-0.533-0.533s-0.533 0.239-0.533 0.533v1.067c0 0.294 0.239 0.533 0.533 0.533s0.533-0.239 0.533-0.533v-1.067z"></path>
      <path
        d="M20.267 17.6c0-0.294-0.239-0.533-0.533-0.533s-0.533 0.239-0.533 0.533v1.067c0 0.294 0.239 0.533 0.533 0.533s0.533-0.239 0.533-0.533v-1.067z"></path>
      <path
        d="M20.267 24c0-0.294-0.239-0.533-0.533-0.533s-0.533 0.239-0.533 0.533v1.067c0 0.294 0.239 0.533 0.533 0.533s0.533-0.239 0.533-0.533v-1.067z"></path>
      <path
        d="M22.4 17.6c0-0.294-0.239-0.533-0.533-0.533s-0.533 0.239-0.533 0.533v1.067c0 0.294 0.239 0.533 0.533 0.533s0.533-0.239 0.533-0.533v-1.067z"></path>
      <path
        d="M18.133 14.4c0-0.294-0.239-0.533-0.533-0.533s-0.533 0.239-0.533 0.533v1.067c0 0.294 0.239 0.533 0.533 0.533s0.533-0.239 0.533-0.533v-1.067z"></path>
      <path
        d="M20.267 14.4c0-0.294-0.239-0.533-0.533-0.533s-0.533 0.239-0.533 0.533v1.067c0 0.294 0.239 0.533 0.533 0.533s0.533-0.239 0.533-0.533v-1.067z"></path>
      <path
        d="M22.4 9.067v-1.067c0-0.294-0.239-0.533-0.533-0.533s-0.533 0.239-0.533 0.533v1.067c0 0.294 0.239 0.533 0.533 0.533s0.533-0.239 0.533-0.533z"></path>
      <path
        d="M18.133 17.6c0-0.294-0.239-0.533-0.533-0.533s-0.533 0.239-0.533 0.533v1.067c0 0.294 0.239 0.533 0.533 0.533s0.533-0.239 0.533-0.533v-1.067z"></path>
      <path
        d="M24.533 8c0-0.294-0.239-0.533-0.533-0.533s-0.533 0.239-0.533 0.533v1.067c0 0.294 0.239 0.533 0.533 0.533s0.533-0.239 0.533-0.533v-1.067z"></path>
      <path
        d="M17.6 20.267c-0.294 0-0.533 0.239-0.533 0.533v1.067c0 0.294 0.239 0.533 0.533 0.533s0.533-0.239 0.533-0.533v-1.067c0-0.294-0.239-0.533-0.533-0.533z"></path>
      <path
        d="M26.667 24c0-0.294-0.239-0.533-0.533-0.533s-0.533 0.239-0.533 0.533v1.067c0 0.294 0.239 0.533 0.533 0.533s0.533-0.239 0.533-0.533v-1.067z"></path>
      <path
        d="M26.133 26.667c-0.294 0-0.533 0.239-0.533 0.533v2.133c0 0.294 0.239 0.533 0.533 0.533s0.533-0.239 0.533-0.533v-2.133c0-0.294-0.239-0.533-0.533-0.533z"></path>
      <path
        d="M28.267 20.267c-0.294 0-0.533 0.239-0.533 0.533v1.067c0 0.294 0.239 0.533 0.533 0.533s0.533-0.239 0.533-0.533v-1.067c0-0.294-0.239-0.533-0.533-0.533z"></path>
      <path
        d="M19.733 9.6c0.294 0 0.533-0.239 0.533-0.533v-2.25l5.333-1.333v8.917c0 0.222 0.138 0.421 0.346 0.5l3.921 1.47v5.497c0 0.294 0.239 0.533 0.533 0.533s0.533-0.239 0.533-0.533v-5.867c0-0.222-0.138-0.421-0.346-0.5l-3.921-1.47v-10.297c0-0.294-0.239-0.533-0.533-0.533s-0.533 0.239-0.533 0.533v0.65l-5.996 1.499c-0.237 0.059-0.404 0.273-0.404 0.517v2.667c0 0.294 0.239 0.533 0.533 0.533z"></path>
      <path
        d="M28.8 17.6c0-0.294-0.239-0.533-0.533-0.533s-0.533 0.239-0.533 0.533v1.067c0 0.294 0.239 0.533 0.533 0.533s0.533-0.239 0.533-0.533v-1.067z"></path>
      <path
        d="M26.667 17.6c0-0.294-0.239-0.533-0.533-0.533s-0.533 0.239-0.533 0.533v1.067c0 0.294 0.239 0.533 0.533 0.533s0.533-0.239 0.533-0.533v-1.067z"></path>
      <path
        d="M22.4 24c0-0.294-0.239-0.533-0.533-0.533s-0.533 0.239-0.533 0.533v1.067c0 0.294 0.239 0.533 0.533 0.533s0.533-0.239 0.533-0.533v-1.067z"></path>
      <path
        d="M26.667 20.8c0-0.294-0.239-0.533-0.533-0.533s-0.533 0.239-0.533 0.533v1.067c0 0.294 0.239 0.533 0.533 0.533s0.533-0.239 0.533-0.533v-1.067z"></path>
      <path
        d="M21.867 26.667c-0.294 0-0.533 0.239-0.533 0.533v2.133c0 0.294 0.239 0.533 0.533 0.533s0.533-0.239 0.533-0.533v-2.133c0-0.294-0.239-0.533-0.533-0.533z"></path>
      <path
        d="M22.4 20.8c0-0.294-0.239-0.533-0.533-0.533s-0.533 0.239-0.533 0.533v1.067c0 0.294 0.239 0.533 0.533 0.533s0.533-0.239 0.533-0.533v-1.067z"></path>
      <path
        d="M24 29.867c0.294 0 0.533-0.239 0.533-0.533v-17.067c0-0.245-0.167-0.458-0.404-0.517l-8.533-2.133c-0.158-0.040-0.329-0.004-0.458 0.097s-0.205 0.256-0.205 0.42v11.733c0 0.294 0.239 0.533 0.533 0.533s0.533-0.239 0.533-0.533v-11.050l7.467 1.867v16.65c0 0.294 0.239 0.533 0.533 0.533z"></path>
      <path
        d="M11.733 11.2c0-0.294-0.239-0.533-0.533-0.533s-0.533 0.239-0.533 0.533v1.067c0 0.294 0.239 0.533 0.533 0.533s0.533-0.239 0.533-0.533v-1.067z"></path>
      <path
        d="M11.733 8c0-0.294-0.239-0.533-0.533-0.533s-0.533 0.239-0.533 0.533v1.067c0 0.294 0.239 0.533 0.533 0.533s0.533-0.239 0.533-0.533v-1.067z"></path>
      <path
        d="M7.467 24c0-0.294-0.239-0.533-0.533-0.533s-0.533 0.239-0.533 0.533v1.067c0 0.294 0.239 0.533 0.533 0.533s0.533-0.239 0.533-0.533v-1.067z"></path>
      <path
        d="M2.667 19.2c0.294 0 0.533-0.239 0.533-0.533v-2.667h5.333v13.333c0 0.294 0.239 0.533 0.533 0.533s0.533-0.239 0.533-0.533v-13.867c0-0.294-0.239-0.533-0.533-0.533h-6.4c-0.294 0-0.533 0.239-0.533 0.533v3.2c0 0.294 0.239 0.533 0.533 0.533z"></path>
      <path
        d="M8.533 11.2v1.067c0 0.294 0.239 0.533 0.533 0.533s0.533-0.239 0.533-0.533v-1.067c0-0.294-0.239-0.533-0.533-0.533s-0.533 0.239-0.533 0.533z"></path>
      <path
        d="M11.733 4.8c0-0.294-0.239-0.533-0.533-0.533s-0.533 0.239-0.533 0.533v1.067c0 0.294 0.239 0.533 0.533 0.533s0.533-0.239 0.533-0.533v-1.067z"></path>
      <path
        d="M6.933 26.667c-0.294 0-0.533 0.239-0.533 0.533v2.133c0 0.294 0.239 0.533 0.533 0.533s0.533-0.239 0.533-0.533v-2.133c0-0.294-0.239-0.533-0.533-0.533z"></path>
      <path
        d="M31.467 30.933h-1.067v-3.276c0.917-0.238 1.6-1.067 1.6-2.058 0-1.177-0.957-2.133-2.133-2.133s-2.133 0.957-2.133 2.133c0 0.991 0.683 1.819 1.6 2.058v3.276h-13.333v-2.187c1.215-0.248 2.133-1.325 2.133-2.613 0-1.47-1.196-2.667-2.667-2.667s-2.667 1.196-2.667 2.667c0 1.288 0.918 2.365 2.133 2.613v2.187h-11.733v-5.387c1.215-0.248 2.133-1.325 2.133-2.613 0-1.47-1.196-2.667-2.667-2.667s-2.667 1.196-2.667 2.667c0 1.288 0.918 2.365 2.133 2.613v5.387h-1.6c-0.294 0-0.533 0.239-0.533 0.533s0.239 0.533 0.533 0.533h30.933c0.294 0 0.533-0.239 0.533-0.533s-0.239-0.533-0.533-0.533zM1.067 22.933c0-0.882 0.718-1.6 1.6-1.6s1.6 0.718 1.6 1.6-0.718 1.6-1.6 1.6-1.6-0.718-1.6-1.6zM13.867 26.133c0-0.882 0.718-1.6 1.6-1.6s1.6 0.718 1.6 1.6-0.718 1.6-1.6 1.6-1.6-0.718-1.6-1.6zM28.8 25.6c0-0.588 0.478-1.067 1.067-1.067s1.067 0.478 1.067 1.067c0 0.588-0.478 1.067-1.067 1.067s-1.067-0.478-1.067-1.067z"></path>
      <path
        d="M4.267 27.2v2.133c0 0.294 0.239 0.533 0.533 0.533s0.533-0.239 0.533-0.533v-2.133c0-0.294-0.239-0.533-0.533-0.533s-0.533 0.239-0.533 0.533z"></path>
      <path
        d="M7.467 17.6c0-0.294-0.239-0.533-0.533-0.533s-0.533 0.239-0.533 0.533v1.067c0 0.294 0.239 0.533 0.533 0.533s0.533-0.239 0.533-0.533v-1.067z"></path>
      <path
        d="M7.467 20.8c0-0.294-0.239-0.533-0.533-0.533s-0.533 0.239-0.533 0.533v1.067c0 0.294 0.239 0.533 0.533 0.533s0.533-0.239 0.533-0.533v-1.067z"></path>
      <path
        d="M4.267 17.6v1.067c0 0.294 0.239 0.533 0.533 0.533s0.533-0.239 0.533-0.533v-1.067c0-0.294-0.239-0.533-0.533-0.533s-0.533 0.239-0.533 0.533z"></path>
      <path
        d="M11.733 20.8c0-0.294-0.239-0.533-0.533-0.533s-0.533 0.239-0.533 0.533v1.067c0 0.294 0.239 0.533 0.533 0.533s0.533-0.239 0.533-0.533v-1.067z"></path>
      <path
        d="M13.867 14.4c0-0.294-0.239-0.533-0.533-0.533s-0.533 0.239-0.533 0.533v1.067c0 0.294 0.239 0.533 0.533 0.533s0.533-0.239 0.533-0.533v-1.067z"></path>
      <path
        d="M13.867 11.2c0-0.294-0.239-0.533-0.533-0.533s-0.533 0.239-0.533 0.533v1.067c0 0.294 0.239 0.533 0.533 0.533s0.533-0.239 0.533-0.533v-1.067z"></path>
      <path
        d="M13.867 17.6c0-0.294-0.239-0.533-0.533-0.533s-0.533 0.239-0.533 0.533v1.067c0 0.294 0.239 0.533 0.533 0.533s0.533-0.239 0.533-0.533v-1.067z"></path>
      <path
        d="M13.333 20.267c-0.294 0-0.533 0.239-0.533 0.533v1.067c0 0.294 0.239 0.533 0.533 0.533s0.533-0.239 0.533-0.533v-1.067c0-0.294-0.239-0.533-0.533-0.533z"></path>
      <path
        d="M13.867 8c0-0.294-0.239-0.533-0.533-0.533s-0.533 0.239-0.533 0.533v1.067c0 0.294 0.239 0.533 0.533 0.533s0.533-0.239 0.533-0.533v-1.067z"></path>
      <path
        d="M11.733 24c0-0.294-0.239-0.533-0.533-0.533s-0.533 0.239-0.533 0.533v1.067c0 0.294 0.239 0.533 0.533 0.533s0.533-0.239 0.533-0.533v-1.067z"></path>
      <path
        d="M6.933 13.867c0.294 0 0.533-0.239 0.533-0.533v-3.937l1.838-0.919c0.181-0.091 0.295-0.275 0.295-0.477v-4.47l2.667-1.333 2.667 1.333v4.47c0 0.294 0.239 0.533 0.533 0.533s0.533-0.239 0.533-0.533v-4.8c0-0.202-0.114-0.387-0.295-0.477l-2.905-1.452v-0.737c0-0.294-0.239-0.533-0.533-0.533s-0.533 0.239-0.533 0.533v0.737l-2.905 1.452c-0.181 0.091-0.295 0.275-0.295 0.477v4.47l-1.838 0.919c-0.181 0.091-0.295 0.275-0.295 0.477v4.267c-0 0.294 0.239 0.533 0.533 0.533z"></path>
      <path
        d="M11.733 17.6c0-0.294-0.239-0.533-0.533-0.533s-0.533 0.239-0.533 0.533v1.067c0 0.294 0.239 0.533 0.533 0.533s0.533-0.239 0.533-0.533v-1.067z"></path>
      <path
        d="M11.2 26.667c-0.294 0-0.533 0.239-0.533 0.533v2.133c0 0.294 0.239 0.533 0.533 0.533s0.533-0.239 0.533-0.533v-2.133c0-0.294-0.239-0.533-0.533-0.533z"></path>
      <path
        d="M13.867 4.8c0-0.294-0.239-0.533-0.533-0.533s-0.533 0.239-0.533 0.533v1.067c0 0.294 0.239 0.533 0.533 0.533s0.533-0.239 0.533-0.533v-1.067z"></path>
      <path
        d="M11.733 14.4c0-0.294-0.239-0.533-0.533-0.533s-0.533 0.239-0.533 0.533v1.067c0 0.294 0.239 0.533 0.533 0.533s0.533-0.239 0.533-0.533v-1.067z"></path>
    </symbol>
    <symbol id="icon-more" viewBox="0 0 32 32">
      <title>more</title>
      <path
        d="M16 8.533c2.353 0 4.267-1.914 4.267-4.267s-1.914-4.267-4.267-4.267-4.267 1.914-4.267 4.267 1.914 4.267 4.267 4.267zM16 1.067c1.765 0 3.2 1.435 3.2 3.2s-1.435 3.2-3.2 3.2-3.2-1.435-3.2-3.2 1.435-3.2 3.2-3.2z"></path>
      <path
        d="M16 23.467c-2.353 0-4.267 1.914-4.267 4.267s1.914 4.267 4.267 4.267 4.267-1.914 4.267-4.267-1.914-4.267-4.267-4.267zM16 30.933c-1.765 0-3.2-1.435-3.2-3.2s1.435-3.2 3.2-3.2 3.2 1.435 3.2 3.2-1.435 3.2-3.2 3.2z"></path>
      <path
        d="M16 11.733c-2.353 0-4.267 1.914-4.267 4.267s1.914 4.267 4.267 4.267 4.267-1.914 4.267-4.267-1.914-4.267-4.267-4.267zM16 19.2c-1.765 0-3.2-1.435-3.2-3.2s1.435-3.2 3.2-3.2 3.2 1.435 3.2 3.2-1.435 3.2-3.2 3.2z"></path>
    </symbol>
    <symbol id="icon-home" viewBox="0 0 32 32">
      <title>home</title>
      <path
        d="M31.725 14.602l-15.725-14.602-15.725 14.602c-0.222 0.206-0.235 0.553-0.028 0.775 0.205 0.222 0.553 0.234 0.775 0.028l1.82-1.69v18.284h26.317v-18.285l1.82 1.69c0.105 0.098 0.24 0.146 0.373 0.146 0.148 0 0.294-0.059 0.401-0.175 0.207-0.222 0.194-0.569-0.028-0.775zM28.062 30.903h-24.124v-18.207l12.062-11.201 12.062 11.201v18.207z"></path>
      <path d="M7.227 19.39h7.676v-7.676h-7.676v7.676zM8.324 12.81h5.483v5.483h-5.483v-5.483z"></path>
      <path d="M24.772 11.714h-7.676v7.676h7.676v-7.676zM23.676 18.293h-5.483v-5.483h5.483v5.483z"></path>
      <path d="M7.227 29.259h7.676v-7.676h-7.676v7.676zM8.324 22.679h5.483v5.483h-5.483v-5.483z"></path>
      <path d="M24.772 21.583h-7.676v7.676h7.676v-7.676zM23.676 28.162h-5.483v-5.483h5.483v5.483z"></path>
    </symbol>
    <symbol id="icon-menu" viewBox="0 0 32 32">
      <title>menu</title>
      <path
        d="M8.889 0h-8.296c-0.327 0-0.593 0.265-0.593 0.593v8.296c0 0.327 0.265 0.593 0.593 0.593h8.296c0.327 0 0.593-0.265 0.593-0.593v-8.296c0-0.327-0.265-0.593-0.593-0.593zM8.296 8.296h-7.111v-7.111h7.111v7.111z"></path>
      <path
        d="M20.148 0h-8.296c-0.327 0-0.593 0.265-0.593 0.593v8.296c0 0.327 0.265 0.593 0.593 0.593h8.296c0.327 0 0.593-0.265 0.593-0.593v-8.296c0-0.327-0.265-0.593-0.593-0.593zM19.556 8.296h-7.111v-7.111h7.111v7.111z"></path>
      <path
        d="M31.407 0h-8.296c-0.327 0-0.593 0.265-0.593 0.593v8.296c0 0.327 0.265 0.593 0.593 0.593h8.296c0.327 0 0.593-0.265 0.593-0.593v-8.296c0-0.327-0.265-0.593-0.593-0.593zM30.815 8.296h-7.111v-7.111h7.111v7.111z"></path>
      <path
        d="M8.889 11.259h-8.296c-0.327 0-0.593 0.266-0.593 0.593v8.296c0 0.327 0.265 0.593 0.593 0.593h8.296c0.327 0 0.593-0.265 0.593-0.593v-8.296c0-0.327-0.265-0.593-0.593-0.593zM8.296 19.556h-7.111v-7.111h7.111v7.111z"></path>
      <path
        d="M20.148 11.259h-8.296c-0.327 0-0.593 0.265-0.593 0.593v8.296c0 0.327 0.265 0.593 0.593 0.593h8.296c0.327 0 0.593-0.265 0.593-0.593v-8.296c0-0.327-0.265-0.593-0.593-0.593zM19.556 19.556h-7.111v-7.111h7.111v7.111z"></path>
      <path
        d="M31.407 11.259h-8.296c-0.327 0-0.593 0.265-0.593 0.593v8.296c0 0.327 0.265 0.593 0.593 0.593h8.296c0.327 0 0.593-0.265 0.593-0.593v-8.296c0-0.327-0.265-0.593-0.593-0.593zM30.815 19.556h-7.111v-7.111h7.111v7.111z"></path>
      <path
        d="M8.889 22.519h-8.296c-0.327 0-0.593 0.265-0.593 0.593v8.296c0 0.327 0.265 0.593 0.593 0.593h8.296c0.327 0 0.593-0.265 0.593-0.593v-8.296c0-0.327-0.265-0.593-0.593-0.593zM8.296 30.815h-7.111v-7.111h7.111v7.111z"></path>
      <path
        d="M20.148 22.519h-8.296c-0.327 0-0.593 0.265-0.593 0.593v8.296c0 0.327 0.265 0.593 0.593 0.593h8.296c0.327 0 0.593-0.265 0.593-0.593v-8.296c0-0.327-0.265-0.593-0.593-0.593zM19.556 30.815h-7.111v-7.111h7.111v7.111z"></path>
      <path
        d="M31.407 22.519h-8.296c-0.327 0-0.593 0.265-0.593 0.593v8.296c0 0.327 0.265 0.593 0.593 0.593h8.296c0.327 0 0.593-0.265 0.593-0.593v-8.296c0-0.327-0.265-0.593-0.593-0.593zM30.815 30.815h-7.111v-7.111h7.111v7.111z"></path>
    </symbol>
    <symbol id="icon-sofa" viewBox="0 0 32 32">
      <title>sofa</title>
      <path
        d="M30 11.333h-0.667v-3.333c0-1.103-0.897-2-2-2h-22.667c-1.103 0-2 0.897-2 2v3.333h-0.667c-1.103 0-2 0.897-2 2v8c0 1.103 0.897 2 2 2h0.667v2c0 0.368 0.299 0.667 0.667 0.667h4c0.368 0 0.667-0.299 0.667-0.667v-2h16v2c0 0.368 0.299 0.667 0.667 0.667h4c0.368 0 0.667-0.299 0.667-0.667v-2h0.667c1.103 0 2-0.897 2-2v-8c0-1.103-0.897-2-2-2zM4 8c0-0.368 0.3-0.667 0.667-0.667h22.667c0.367 0 0.667 0.299 0.667 0.667v3.456c-0.775 0.276-1.333 1.009-1.333 1.877v2h-21.333v-2c0-0.868-0.559-1.601-1.333-1.877v-3.456zM26.667 16.667v1.333h-21.333v-1.333h21.333zM6.667 24.667h-2.667v-1.333h2.667v1.333zM28 24.667h-2.667v-1.333h2.667v1.333zM30.667 21.333c0 0.368-0.3 0.667-0.667 0.667h-28c-0.367 0-0.667-0.299-0.667-0.667v-8c0-0.368 0.3-0.667 0.667-0.667h1.333c0.367 0 0.667 0.299 0.667 0.667v5.333c0 0.368 0.299 0.667 0.667 0.667h22.667c0.368 0 0.667-0.299 0.667-0.667v-5.333c0-0.368 0.3-0.667 0.667-0.667h1.333c0.367 0 0.667 0.299 0.667 0.667v8z"></path>
    </symbol>
    <symbol id="icon-search" viewBox="0 0 32 32">
      <title>search</title>
      <path
        d="M24 12c0-6.627-5.373-12-12-12s-12 5.373-12 12 5.373 12 12 12c6.627 0 12-5.373 12-12zM12 21c-4.963 0-9-4.037-9-9s4.037-9 9-9c4.963 0 9 4.037 9 9s-4.037 9-9 9z"></path>
      <path
        d="M31.121 26.879l-7.341-7.342c-1.094 1.701-2.541 3.148-4.243 4.242l7.342 7.342c1.172 1.172 3.072 1.172 4.242 0 1.172-1.17 1.172-3.070 0-4.242z"></path>
    </symbol>
    <symbol id="icon-rent-icon" viewBox="0 0 44 32">
      <title>rent-icon</title>
      <path fill="#333333" style="fill: var(--color1, #333333)"
            d="M4.713 25.704c-1.079 0-1.961 0.881-1.961 1.961s0.881 1.961 1.961 1.961h5.414c0.809 0 1.475-0.666 1.475-1.475 0-0.648-0.432-1.205-1.025-1.403-0.198-1.151-1.205-2.033-2.428-2.033-0.971 0-1.799 0.558-2.212 1.385-0.072-0.054-0.162-0.108-0.252-0.144zM10.127 28.654h-5.414c-0.54 0-0.989-0.45-0.989-0.989s0.45-0.989 0.989-0.989c0.468 0 0.863 0.27 1.007 0.666 0.090 0.216 0.306 0.36 0.54 0.306 0.234-0.036 0.396-0.252 0.396-0.486 0-0.809 0.666-1.475 1.475-1.475s1.475 0.666 1.475 1.475c0 0.27 0.216 0.486 0.486 0.486s0.486 0.216 0.486 0.486-0.18 0.522-0.45 0.522z"></path>
      <path fill="#333333" style="fill: var(--color1, #333333)"
            d="M29.302 25.938c-0.090 0.054-0.18 0.090-0.252 0.144-0.396-0.809-1.241-1.385-2.212-1.385-1.205 0-2.23 0.881-2.428 2.033-0.594 0.198-1.025 0.755-1.025 1.403 0 0.18 0.036 0.342 0.090 0.486h-16.549c-0.27 0-0.486 0.216-0.486 0.486s0.216 0.486 0.486 0.486h23.348c1.079 0 1.961-0.881 1.961-1.961s-0.881-1.961-1.961-1.961zM30.273 28.654h-5.396c-0.27 0-0.486-0.216-0.486-0.486s0.216-0.486 0.486-0.486c0.27 0 0.486-0.216 0.486-0.486 0-0.809 0.666-1.475 1.475-1.475s1.475 0.666 1.475 1.475c0 0.234 0.162 0.45 0.396 0.486s0.468-0.090 0.54-0.306c0.144-0.396 0.558-0.666 1.007-0.666 0.54 0 0.989 0.45 0.989 0.989 0.018 0.504-0.432 0.953-0.971 0.953z"></path>
      <path fill="#333333" style="fill: var(--color1, #333333)"
            d="M29.877 29.050c-0.45 0 1.205-0.18 0.989-0.432h-6.673v-1.799c0-0.288-0.234-0.504-0.504-0.504h-0.953v-1.799c0-0.288-0.234-0.504-0.504-0.504h-1.367v-9.623c0-0.288-0.234-0.504-0.504-0.504h-5.738c-0.288 0-0.504 0.234-0.504 0.504v9.605h-1.385c-0.288 0-0.504 0.234-0.504 0.504v1.799h-0.953c-0.288 0-0.504 0.234-0.504 0.504v1.799h-6.781c-0.216 0.162 1.781 0.252 1.457 0.252-0.234 0-0.432-0.054-0.594-0.126v0.378c0 0.288 0.234 0.504 0.504 0.504h24.265c0.288 0 0.504-0.234 0.504-0.504v-0.090c-0.090 0.018-0.162 0.036-0.252 0.036zM15.146 14.894h4.713v9.102h-4.713v-9.102zM13.257 25.021h8.49v1.277h-8.49v-1.277zM23.186 28.6h-11.386v-1.277h11.386v1.277z"></path>
      <path fill="#333333" style="fill: var(--color1, #333333)"
            d="M31.568 9.138l-2.842-6.476c-0.072-0.18-0.27-0.306-0.468-0.306h-21.531c-0.198 0-0.378 0.126-0.468 0.306l-2.842 6.476c-0.072 0.162-0.054 0.342 0.036 0.486s0.252 0.234 0.432 0.234h0.971v16.459c0.18-0.090 0.396-0.144 0.648-0.144 0.126 0 0.252 0.018 0.36 0.054v-16.369h6.17l-1.925 1.925c-0.198 0.198-0.198 0.522 0 0.72s0.522 0.198 0.72 0l6.673-6.673 6.673 6.673c0.090 0.090 0.234 0.144 0.36 0.144s0.252-0.054 0.36-0.144c0.198-0.198 0.198-0.522 0-0.72l-1.925-1.925h6.17v3.418c0 0 0 0 0 0v13.329c0.198-0.162 0.468-0.252 0.791-0.252 0.072 0 0.144 0 0.216 0.018v-13.922c0 0 0 0 0 0v-2.59h0.971c0.162 0 0.324-0.090 0.432-0.234 0.072-0.144 0.090-0.324 0.018-0.486zM21.945 8.832l-4.101-4.083c-0.198-0.198-0.522-0.198-0.72 0l-4.083 4.083h-8.382l2.41-5.468h20.884l2.41 5.468h-8.418z"></path>
      <path fill="#333333" style="fill: var(--color1, #333333)"
            d="M27.179 15.433h-4.299c-0.288 0-0.504 0.234-0.504 0.504v5.936c0 0.288 0.234 0.504 0.504 0.504h4.299c0.288 0 0.504-0.234 0.504-0.504v-5.936c0-0.288-0.234-0.504-0.504-0.504zM26.658 21.351h-3.274v-2.572h3.634c0.288 0 0.504-0.234 0.504-0.504 0-0.288-0.234-0.504-0.504-0.504h-3.634v-1.349h3.292v4.929z"></path>
      <path fill="#333333" style="fill: var(--color1, #333333)"
            d="M12.106 15.433h-4.281c-0.288 0-0.504 0.234-0.504 0.504v5.936c0 0.288 0.234 0.504 0.504 0.504h4.299c0.288 0 0.504-0.234 0.504-0.504v-5.936c-0.018-0.288-0.234-0.504-0.522-0.504zM11.602 21.351h-3.274v-2.572h3.292v2.572zM11.602 17.772h-3.274v-1.349h3.292v1.349z"></path>
      <path fill="#333333" style="fill: var(--color1, #333333)"
            d="M16.549 19.714c0 0.278-0.226 0.504-0.504 0.504s-0.504-0.226-0.504-0.504c0-0.278 0.226-0.504 0.504-0.504s0.504 0.226 0.504 0.504z"></path>
      <path fill="#333333" style="fill: var(--color1, #333333)" d="M37.27 18.132h0.396v11.242h-0.396v-11.242z"></path>
      <path fill="#333333" style="fill: var(--color1, #333333)"
            d="M37.27 18.707l0.414-0.306v-0.63h-1.205v11.602h0.396v-11.278h0.396z"></path>
      <path fill="#fff" style="fill: var(--color2, #fff)" d="M32.486 19.373h9.444v6.799h-9.444v-6.799z"></path>
      <path fill="#333333" style="fill: var(--color1, #333333)"
            d="M42.307 26.388h-10.073v-7.249h10.073v7.249zM32.648 25.992h9.264v-6.44h-9.264v6.44z"></path>
      <path fill="#333333" style="fill: var(--color3, #333333)"
            d="M33.925 23.474h-0.288v-1.115h-0.36v-0.234h1.025v0.234h-0.36v1.115z"></path>
      <path fill="#333333" style="fill: var(--color3, #333333)"
            d="M35.723 22.808c0 0.216-0.054 0.396-0.162 0.522s-0.27 0.18-0.486 0.18c-0.216 0-0.36-0.054-0.486-0.18-0.108-0.126-0.162-0.288-0.162-0.522s0.054-0.396 0.162-0.522c0.108-0.126 0.27-0.18 0.486-0.18s0.36 0.054 0.486 0.18c0.108 0.126 0.162 0.288 0.162 0.522zM34.734 22.808c0 0.144 0.036 0.27 0.090 0.342s0.144 0.108 0.252 0.108c0.234 0 0.342-0.144 0.342-0.45s-0.108-0.45-0.342-0.45c-0.108 0-0.198 0.036-0.252 0.108s-0.090 0.18-0.090 0.342z"></path>
      <path fill="#333333" style="fill: var(--color3, #333333)"
            d="M36.785 22.97v0.522h-0.288v-1.367h0.396c0.18 0 0.324 0.036 0.414 0.108s0.126 0.162 0.126 0.306c0 0.072-0.018 0.144-0.072 0.216-0.036 0.054-0.108 0.108-0.18 0.144 0.198 0.306 0.342 0.504 0.396 0.594h-0.324l-0.324-0.522h-0.144zM36.785 22.736h0.090c0.090 0 0.162-0.018 0.198-0.054s0.072-0.072 0.072-0.144c0-0.072-0.018-0.108-0.072-0.144-0.036-0.036-0.108-0.036-0.198-0.036h-0.090v0.378z"></path>
      <path fill="#333333" style="fill: var(--color3, #333333)"
            d="M38.529 23.474h-0.773v-1.349h0.773v0.234h-0.486v0.306h0.45v0.234h-0.45v0.342h0.486v0.234z"></path>
      <path fill="#333333" style="fill: var(--color3, #333333)"
            d="M40.005 23.474h-0.36l-0.594-1.025c0.018 0.18 0.018 0.306 0.018 0.396v0.63h-0.252v-1.349h0.36l0.594 1.007c-0.018-0.18-0.018-0.306-0.018-0.378v-0.63h0.252v1.349z"></path>
      <path fill="#333333" style="fill: var(--color3, #333333)"
            d="M40.868 23.474h-0.288v-1.115h-0.36v-0.234h1.025v0.234h-0.36v1.115z"></path>
    </symbol>
    <symbol id="icon-rent-buy" viewBox="0 0 44 32">
      <title>rent-buy</title>
      <path fill="#333333" style="fill: var(--color1, #333333)"
            d="M8.832 18.869h6.512v-4.641h-6.512v4.641zM9.767 17.952v-1.403h4.659v1.403h-4.659zM14.408 15.146v0.468h-4.641v-0.468h4.641z"></path>
      <path fill="#333333" style="fill: var(--color1, #333333)"
            d="M8.832 20.74v5.576h6.512v-5.576h-6.512zM11.62 21.657v1.403h-1.853v-1.403h1.853zM9.767 23.995h1.853v1.403h-1.853v-1.403zM12.555 25.381v-1.403h1.853v1.403h-1.853zM14.408 23.060h-1.853v-1.403h1.853v1.403z"></path>
      <path fill="#333333" style="fill: var(--color1, #333333)"
            d="M17.196 18.869h6.512v-4.641h-6.512v4.641zM18.132 17.952v-0.468h4.659v0.468h-4.659zM22.79 15.146v1.403h-4.659v-1.403h4.659z"></path>
      <path fill="#333333" style="fill: var(--color1, #333333)"
            d="M29.752 24.445c-0.252 0-0.468 0.216-0.468 0.468v0.468h-0.468v-0.468c0-0.252-0.216-0.468-0.468-0.468s-0.468 0.216-0.468 0.468v0.468h-0.468v-9.39c0.234 0.108 0.504 0.162 0.755 0.162 0.504 0 0.989-0.198 1.367-0.594 0.36-0.378 0.54-0.899 0.486-1.421-0.036-0.522-0.306-0.989-0.702-1.313l-11.782-9.228-1.259-1.169-1.241 1.151-11.818 9.246c-0.414 0.324-0.666 0.791-0.702 1.313s0.144 1.025 0.486 1.421c0.558 0.594 1.403 0.755 2.123 0.432v9.39h-0.468v-0.468c0-0.252-0.216-0.468-0.468-0.468s-0.468 0.216-0.468 0.468v0.468h-0.468v-0.468c0-0.252-0.216-0.468-0.468-0.468s-0.468 0.216-0.468 0.468v4.191c0 0.252 0.216 0.468 0.468 0.468s0.468-0.216 0.468-0.468v-0.468h0.468v0.468c0 0.252 0.216 0.468 0.468 0.468s0.468-0.216 0.468-0.468v-0.468h0.468v0.935h22.323v-0.935h0.468v0.468c0 0.252 0.216 0.468 0.468 0.468s0.468-0.216 0.468-0.468v-0.468h0.468v0.468c0 0.252 0.216 0.468 0.468 0.468s0.468-0.216 0.468-0.468v-4.191c-0.036-0.252-0.234-0.468-0.504-0.468zM3.669 14.93c-0.18-0.198-0.27-0.45-0.252-0.702 0.018-0.27 0.144-0.504 0.36-0.666l11.872-9.282 0.63-0.594 0.666 0.612 11.818 9.246c0.216 0.162 0.342 0.396 0.36 0.666s-0.072 0.522-0.252 0.702c-0.324 0.36-0.863 0.396-1.241 0.108l-0.18-0.144-11.152-8.598-11.332 8.742c-0.414 0.306-0.953 0.27-1.295-0.090zM3.256 27.701v-1.403h0.468v1.403h-0.468zM4.641 27.701v-1.403h0.468v1.403h-0.468zM18.132 28.636v-6.979h4.659v6.979h-4.659zM26.496 28.636h-2.788v-7.897h-6.512v7.897h-11.152v-13.293l10.235-7.879 10.235 7.879v13.293zM27.431 27.701v-1.403h0.468v1.403h-0.468zM28.834 27.701v-1.403h0.468v1.403h-0.468z"></path>
      <path fill="#333333" style="fill: var(--color1, #333333)"
            d="M32.234 29.554h-0.36v-9.587h9.228v-0.342h-9.228v-0.72h-0.36v0.72h-0.702v0.342h0.702v9.587h-0.36v-9.228h-0.702v-1.061h0.702v-0.702h1.079v0.702h9.228v1.061h-9.228z"></path>
      <path fill="#333333" style="fill: var(--color1, #333333)"
            d="M41.462 27.431h-8.868v-6.386h8.868v6.386zM32.935 27.071h8.166v-5.684h-8.166v5.684z"></path>
      <path fill="#333333" style="fill: var(--color1, #333333)" d="M33.295 20.146h0.36v1.061h-0.36v-1.061z"></path>
      <path fill="#333333" style="fill: var(--color1, #333333)" d="M37.594 20.146h0.36v1.061h-0.36v-1.061z"></path>
      <path fill="#333333" style="fill: var(--color3, #333333)"
            d="M34.554 24.679h-0.252v-0.989h-0.324v-0.216h0.899v0.216h-0.324v0.989z"></path>
      <path fill="#333333" style="fill: var(--color3, #333333)"
            d="M36.137 24.085c0 0.198-0.054 0.342-0.144 0.45s-0.234 0.162-0.414 0.162c-0.18 0-0.324-0.054-0.414-0.162s-0.144-0.252-0.144-0.45c0-0.198 0.054-0.342 0.144-0.45s0.234-0.162 0.414-0.162 0.324 0.054 0.414 0.162c0.108 0.090 0.144 0.252 0.144 0.45zM35.274 24.085c0 0.126 0.018 0.234 0.072 0.306s0.126 0.108 0.234 0.108c0.198 0 0.306-0.126 0.306-0.396s-0.108-0.396-0.306-0.396c-0.108 0-0.18 0.036-0.234 0.108-0.054 0.036-0.072 0.126-0.072 0.27z"></path>
      <path fill="#333333" style="fill: var(--color3, #333333)"
            d="M36.821 23.492h0.378c0.162 0 0.288 0.018 0.36 0.072s0.108 0.126 0.108 0.234c0 0.072-0.018 0.126-0.054 0.18s-0.072 0.072-0.126 0.090v0c0.072 0.018 0.126 0.054 0.162 0.090s0.054 0.108 0.054 0.18c0 0.108-0.036 0.198-0.126 0.252-0.072 0.054-0.18 0.090-0.324 0.090h-0.45v-1.187zM37.072 23.96h0.144c0.072 0 0.126-0.018 0.144-0.036 0.036-0.018 0.054-0.054 0.054-0.108s-0.018-0.072-0.054-0.090c-0.036-0.018-0.090-0.036-0.162-0.036h-0.126v0.27zM37.072 24.157v0.306h0.162c0.072 0 0.126-0.018 0.162-0.036s0.054-0.072 0.054-0.126c0-0.090-0.072-0.144-0.216-0.144h-0.162z"></path>
      <path fill="#333333" style="fill: var(--color3, #333333)"
            d="M38.925 23.492v0.773c0 0.090-0.018 0.162-0.054 0.234s-0.090 0.126-0.162 0.144c-0.072 0.036-0.162 0.054-0.27 0.054-0.162 0-0.27-0.036-0.36-0.126-0.090-0.072-0.126-0.18-0.126-0.324v-0.773h0.252v0.738c0 0.090 0.018 0.162 0.054 0.198s0.090 0.072 0.18 0.072c0.090 0 0.144-0.018 0.18-0.072 0.036-0.036 0.054-0.108 0.054-0.198v-0.72h0.252z"></path>
      <path fill="#333333" style="fill: var(--color3, #333333)"
            d="M39.573 23.977l0.252-0.486h0.27l-0.396 0.72v0.468h-0.252v-0.45l-0.396-0.738h0.27l0.252 0.486z"></path>
    </symbol>
    <symbol id="icon-down-arrow" viewBox="0 0 32 32">
      <title>down-arrow</title>
      <path
        d="M30.090 8.583c-0.397-0.397-1.042-0.397-1.439 0l-12.651 12.676-12.676-12.676c-0.397-0.397-1.042-0.397-1.439 0s-0.397 1.042 0 1.439l13.371 13.371c0.198 0.198 0.447 0.298 0.719 0.298 0.248 0 0.521-0.099 0.719-0.298l13.371-13.371c0.422-0.397 0.422-1.042 0.025-1.439z"></path>
    </symbol>
    <symbol id="icon-map" viewBox="0 0 32 32">
      <title>mapview</title>
      <path
        d="M16.104 7.013c-2.255 0-4.091 1.836-4.091 4.091s1.836 4.091 4.091 4.091 4.091-1.836 4.091-4.091-1.836-4.091-4.091-4.091zM16.104 14.026c-1.611 0-2.922-1.311-2.922-2.922s1.311-2.922 2.922-2.922 2.922 1.311 2.922 2.922-1.311 2.922-2.922 2.922z"></path>
      <path
        d="M23.925 3.283c-2.117-2.117-4.931-3.283-7.924-3.283s-5.808 1.166-7.924 3.283c-3.917 3.917-4.404 11.286-1.054 15.751l8.979 12.967 8.965-12.949c3.363-4.483 2.876-11.852-1.041-15.769zM24.018 18.368l-8.017 11.578-8.030-11.596c-3.038-4.051-2.603-10.706 0.933-14.241 1.896-1.896 4.416-2.94 7.098-2.94s5.202 1.044 7.098 2.94c3.536 3.535 3.971 10.19 0.919 14.259z"></path>
    </symbol>
    <symbol id="icon-phone" viewBox="0 0 32 32">
      <title>phone</title>
      <path
        d="M22 20c-2 2-2 4-4 4s-4-2-6-4-4-4-4-6 2-2 4-4-4-8-6-8-6 6-6 6c0 4 4.109 12.109 8 16s12 8 16 8c0 0 6-4 6-6s-6-8-8-6z"></path>
    </symbol>
    <symbol id="icon-email" viewBox="0 0 32 32">
      <title>email</title>
      <path
        d="M32 24c0 0.702-0.197 1.352-0.513 1.924l-10.104-11.305 9.994-8.744c0.389 0.617 0.623 1.342 0.623 2.125v16zM16 16.672l13.907-12.168c-0.571-0.312-1.213-0.504-1.907-0.504h-24c-0.694 0-1.337 0.192-1.905 0.504l13.905 12.168zM19.877 15.936l-3.219 2.818c-0.188 0.164-0.423 0.246-0.658 0.246s-0.47-0.082-0.658-0.246l-3.22-2.818-10.232 11.449c0.613 0.385 1.332 0.615 2.109 0.615h24c0.777 0 1.496-0.23 2.109-0.615l-10.232-11.449zM0.623 5.875c-0.389 0.617-0.623 1.342-0.623 2.125v16c0 0.702 0.196 1.352 0.514 1.924l10.103-11.307-9.993-8.742z"></path>
    </symbol>
    <symbol id="icon-location" viewBox="0 0 32 32">
      <title>location</title>
      <path
        d="M16 0c-5.523 0-10 4.477-10 10 0 10 10 22 10 22s10-12 10-22c0-5.523-4.477-10-10-10zM16 16.125c-3.383 0-6.125-2.742-6.125-6.125s2.742-6.125 6.125-6.125 6.125 2.742 6.125 6.125-2.742 6.125-6.125 6.125zM12.125 10c0-2.14 1.735-3.875 3.875-3.875s3.875 1.735 3.875 3.875c0 2.14-1.735 3.875-3.875 3.875s-3.875-1.735-3.875-3.875z"></path>
    </symbol>
    <symbol id="icon-email" viewBox="0 0 32 32">
      <title>email</title>
      <path
        d="M32 24c0 0.702-0.197 1.352-0.513 1.924l-10.104-11.305 9.994-8.744c0.389 0.617 0.623 1.342 0.623 2.125v16zM16 16.672l13.907-12.168c-0.571-0.312-1.213-0.504-1.907-0.504h-24c-0.694 0-1.337 0.192-1.905 0.504l13.905 12.168zM19.877 15.936l-3.219 2.818c-0.188 0.164-0.423 0.246-0.658 0.246s-0.47-0.082-0.658-0.246l-3.22-2.818-10.232 11.449c0.613 0.385 1.332 0.615 2.109 0.615h24c0.777 0 1.496-0.23 2.109-0.615l-10.232-11.449zM0.623 5.875c-0.389 0.617-0.623 1.342-0.623 2.125v16c0 0.702 0.196 1.352 0.514 1.924l10.103-11.307-9.993-8.742z"></path>
    </symbol>
    <symbol id="icon-warning" viewBox="0 0 32 32">
      <title>warning</title>
      <path
        d="M16 25.467c1.225 0 2.245-0.939 2.348-2.159l1.593-19.022c0.093-1.103-0.281-2.194-1.030-3.008-0.748-0.814-1.804-1.277-2.91-1.277s-2.162 0.464-2.91 1.277c-0.749 0.815-1.123 1.905-1.030 3.008l1.593 19.022c0.103 1.221 1.123 2.159 2.348 2.159z"></path>
      <path
        d="M16 26.867c-1.418 0-2.567 1.149-2.567 2.567s1.149 2.567 2.567 2.567 2.567-1.149 2.567-2.567c0-1.418-1.149-2.567-2.567-2.567z"></path>
    </symbol>
    <symbol id="icon-yield" viewBox="0 0 32 32">
      <title>yield</title>
      <path
        d="M29.644 11.698h-0.466c-0.774-1.989-2.074-3.793-3.806-5.257-0.243-0.879-0.059-1.831 0.564-2.815 0.348-0.558 0.367-1.227 0.052-1.798-0.315-0.564-0.906-0.912-1.542-0.912-0.072 0-0.151 0.007-0.223 0.013-2.395 0.295-3.852 1.365-4.725 2.382-1.050-0.328-2.382-0.427-2.632-0.446-0.617-0.066-1.247-0.105-1.87-0.105-3.984 0-7.731 1.365-10.559 3.833-2.861 2.5-4.436 5.841-4.436 9.398 0 0.919 0.105 1.838 0.322 2.737 0.007 0.020 0.007 0.039 0.013 0.052l0.007 0.033c0.223 0.906 0.558 1.792 0.984 2.638 0.715 1.536 1.569 2.822 2.527 3.813 1.326 1.365 1.555 3.098 1.588 3.793v0.341c0 0.013 0 0.033 0 0.046 0 0.072 0.007 0.138 0.020 0.203 0.125 0.814 0.827 1.437 1.667 1.437h4.889c0.932 0 1.687-0.755 1.687-1.687v-0.223c0.696 0.052 1.398 0.059 2.1 0.026v0.197c0 0.932 0.755 1.687 1.687 1.687h4.889c0.932 0 1.687-0.755 1.687-1.687v-1.194c0.007-0.276 0.112-1.582 1.352-2.71 0.059-0.052 0.125-0.105 0.184-0.157 0.007-0.007 0.007-0.007 0.013-0.013 0.020-0.013 0.033-0.026 0.046-0.046 1.634-1.463 2.868-3.249 3.583-5.198h0.387c1.306 0 2.369-1.063 2.369-2.369v-3.655c0.013-1.299-1.050-2.356-2.356-2.356zM24.446 2.681c-0.007 0-0.007 0 0 0-0.007-0.007-0.007-0.007-0.007-0.007s0 0 0 0.007v0l-0.112-0.879 0.118 0.879zM30.241 17.716c0 0.328-0.269 0.597-0.597 0.597h-1.024c-0.387 0-0.735 0.256-0.847 0.623-0.578 1.89-1.726 3.636-3.308 5.047-0.007 0.007-0.007 0.007-0.013 0.013l-0.007 0.007c-0.059 0.052-0.118 0.105-0.177 0.157-0.007 0.007-0.013 0.013-0.020 0.020-1.752 1.588-1.929 3.459-1.943 3.997 0 0.007 0 0.013 0 0.020v1.122h-4.725v-1.070c0-0.249-0.105-0.492-0.295-0.656-0.184-0.171-0.44-0.249-0.683-0.223-0.538 0.059-1.076 0.085-1.608 0.085-0.689 0-1.378-0.046-2.054-0.138-0.256-0.033-0.512 0.046-0.702 0.21-0.19 0.171-0.302 0.413-0.302 0.669v1.122h-4.719v-0.282c0-0.013 0-0.026 0-0.039-0.039-0.886-0.322-3.15-2.087-4.968-0.827-0.853-1.569-1.975-2.199-3.34-0.007-0.013-0.013-0.020-0.013-0.033-0.374-0.728-0.663-1.49-0.853-2.271 0-0.007-0.007-0.013-0.007-0.020s0-0.007 0-0.013c-0.184-0.774-0.282-1.569-0.282-2.356 0-6.32 5.933-11.459 13.224-11.459 0.564 0 1.135 0.033 1.693 0.092 0.013 0 0.026 0 0.039 0.007 0.735 0.046 2.1 0.236 2.645 0.532 0.4 0.217 0.899 0.092 1.155-0.282 0.571-0.847 1.713-1.916 3.905-2.185-0.886 1.418-1.148 2.888-0.761 4.259 0.007 0.256 0.131 0.499 0.328 0.663 1.772 1.431 3.058 3.249 3.715 5.25 0.118 0.361 0.459 0.61 0.84 0.61 0.007 0 0.007 0 0.013 0h1.076c0.328 0 0.597 0.269 0.597 0.597v3.636h-0.007z"></path>
    </symbol>
    <symbol id="icon-stamp" viewBox="0 0 32 32">
      <title>stamp</title>
      <path
        d="M30.063 20.75h-8.438c-1.551 0-2.813-1.262-2.813-2.813v-0.381c0-2.693 0.785-5.105 2.212-6.792 1.282-1.516 1.796-3.523 1.412-5.506-0.497-2.562-2.591-4.671-5.21-5.148-4.105-0.748-7.788 2.373-7.788 6.451 0 1.381 0.427 2.701 1.236 3.817 1.668 2.302 2.514 4.647 2.514 6.972v0.506c0 1.622-1.235 2.892-2.813 2.892h-8.438v7.5h1.875v3.75h24.375v-3.75h1.875v-7.5zM12.192 9.279c-0.575-0.794-0.879-1.733-0.879-2.717 0-2.836 2.546-5.158 5.577-4.606 1.828 0.333 3.352 1.838 3.706 3.66 0.28 1.443-0.076 2.842-1.003 3.938-1.712 2.025-2.655 4.867-2.655 8.002v0.381c0 1.054 0.35 2.029 0.94 2.813h-3.765c0.615-0.823 0.95-1.828 0.95-2.892v-0.506c0-2.728-0.966-5.444-2.871-8.072zM26.313 30.125h-20.625v-1.875h20.625zM28.188 26.375h-24.375v-3.75h24.375z"></path>
    </symbol>
    <symbol id="icon-list" viewBox="0 0 32 32">
      <title>list</title>
      <path
        d="M3.444 8.805c1.902 0 3.444-1.549 3.444-3.444s-1.542-3.45-3.444-3.45-3.444 1.549-3.444 3.444 1.549 3.45 3.444 3.45zM3.444 3.512c1.019 0 1.843 0.83 1.843 1.843s-0.83 1.843-1.843 1.843-1.843-0.83-1.843-1.843 0.83-1.843 1.843-1.843z"></path>
      <path
        d="M3.444 19.444c1.902 0 3.444-1.549 3.444-3.444s-1.542-3.444-3.444-3.444-3.444 1.542-3.444 3.444 1.549 3.444 3.444 3.444zM3.444 14.157c1.019 0 1.843 0.83 1.843 1.843s-0.83 1.843-1.843 1.843-1.843-0.823-1.843-1.843 0.83-1.843 1.843-1.843z"></path>
      <path
        d="M3.444 30.089c1.902 0 3.444-1.549 3.444-3.444 0-1.902-1.549-3.444-3.444-3.444s-3.444 1.549-3.444 3.444c0 1.895 1.549 3.444 3.444 3.444zM3.444 24.796c1.019 0 1.843 0.83 1.843 1.843 0 1.019-0.83 1.843-1.843 1.843s-1.843-0.83-1.843-1.843c0-1.013 0.83-1.843 1.843-1.843z"></path>
      <path
        d="M11.494 6.159h19.702c0.444 0 0.804-0.359 0.804-0.804s-0.359-0.804-0.804-0.804h-19.702c-0.444 0-0.804 0.359-0.804 0.804s0.359 0.804 0.804 0.804z"></path>
      <path
        d="M11.494 16.804h19.702c0.444 0 0.804-0.359 0.804-0.804s-0.359-0.804-0.804-0.804h-19.702c-0.444 0-0.804 0.359-0.804 0.804s0.359 0.804 0.804 0.804z"></path>
      <path
        d="M11.494 27.442h19.702c0.444 0 0.804-0.359 0.804-0.804s-0.359-0.804-0.804-0.804h-19.702c-0.444 0-0.804 0.359-0.804 0.804s0.359 0.804 0.804 0.804z"></path>
    </symbol>
    <symbol id="icon-grid" viewBox="0 0 32 32">
      <title>grid</title>
      <path
        d="M9.226 2.104c0-1.157-0.947-2.104-2.104-2.104h-5.016c-1.157 0-2.104 0.947-2.104 2.104v5.009c0 1.157 0.947 2.104 2.104 2.104h5.009c1.157 0 2.104-0.947 2.104-2.104v-5.009h0.007zM7.615 7.119c0 0.269-0.223 0.493-0.493 0.493h-5.016c-0.27 0-0.493-0.223-0.493-0.493v-5.016c0-0.27 0.224-0.493 0.493-0.493h5.009c0.269 0 0.493 0.224 0.493 0.493v5.016h0.007z"></path>
      <path
        d="M9.226 13.495c0-1.157-0.947-2.104-2.104-2.104h-5.016c-1.157 0-2.104 0.947-2.104 2.104v5.009c0 1.157 0.947 2.104 2.104 2.104h5.009c1.157 0 2.104-0.947 2.104-2.104v-5.009h0.007zM7.615 18.505c0 0.27-0.223 0.493-0.493 0.493h-5.016c-0.27 0-0.493-0.224-0.493-0.493v-5.009c0-0.27 0.224-0.493 0.493-0.493h5.009c0.269 0 0.493 0.223 0.493 0.493v5.009h0.007z"></path>
      <path
        d="M7.122 22.777h-5.016c-1.157 0-2.104 0.947-2.104 2.104v5.009c0 1.157 0.947 2.104 2.104 2.104h5.009c1.157 0 2.104-0.947 2.104-2.104v-5.009c0.007-1.157-0.94-2.104-2.097-2.104zM7.615 29.896c0 0.27-0.223 0.493-0.493 0.493h-5.016c-0.27 0-0.493-0.224-0.493-0.493v-5.009c0-0.27 0.224-0.493 0.493-0.493h5.009c0.269 0 0.493 0.224 0.493 0.493v5.009h0.007z"></path>
      <path
        d="M11.395 18.505c0 1.157 0.947 2.104 2.104 2.104h5.009c1.157 0 2.104-0.947 2.104-2.104v-5.009c0-1.157-0.947-2.104-2.104-2.104h-5.009c-1.157 0-2.104 0.947-2.104 2.104v5.009zM13.006 13.495c0-0.27 0.223-0.493 0.493-0.493h5.009c0.27 0 0.493 0.223 0.493 0.493v5.009c0 0.27-0.224 0.493-0.493 0.493h-5.009c-0.27 0-0.493-0.224-0.493-0.493v-5.009z"></path>
      <path
        d="M11.395 29.896c0 1.157 0.947 2.104 2.104 2.104h5.009c1.157 0 2.104-0.947 2.104-2.104v-5.009c0-1.157-0.947-2.104-2.104-2.104h-5.009c-1.157 0-2.104 0.947-2.104 2.104v5.009zM13.006 24.881c0-0.27 0.223-0.493 0.493-0.493h5.009c0.27 0 0.493 0.224 0.493 0.493v5.009c0 0.27-0.224 0.493-0.493 0.493h-5.009c-0.27 0-0.493-0.224-0.493-0.493v-5.009z"></path>
      <path
        d="M22.781 18.505c0 1.157 0.947 2.104 2.104 2.104h5.009c1.157 0 2.104-0.947 2.104-2.104v-5.009c0-1.157-0.947-2.104-2.104-2.104h-5.009c-1.157 0-2.104 0.947-2.104 2.104v5.009zM24.391 13.495c0-0.27 0.224-0.493 0.493-0.493h5.009c0.27 0 0.493 0.223 0.493 0.493v5.009c0 0.27-0.224 0.493-0.493 0.493h-5.009c-0.27 0-0.493-0.224-0.493-0.493v-5.009z"></path>
      <path
        d="M22.781 29.896c0 1.157 0.947 2.104 2.104 2.104h5.009c1.157 0 2.104-0.947 2.104-2.104v-5.009c0-1.157-0.947-2.104-2.104-2.104h-5.009c-1.157 0-2.104 0.947-2.104 2.104v5.009zM24.391 24.881c0-0.27 0.224-0.493 0.493-0.493h5.009c0.27 0 0.493 0.224 0.493 0.493v5.009c0 0.27-0.224 0.493-0.493 0.493h-5.009c-0.27 0-0.493-0.224-0.493-0.493v-5.009z"></path>
      <path
        d="M11.395 2.104v5.009c0 1.157 0.947 2.104 2.104 2.104h5.009c1.157 0 2.104-0.947 2.104-2.104v-5.009c0-1.157-0.947-2.104-2.104-2.104h-5.009c-1.164 0-2.104 0.947-2.104 2.104zM13.006 2.104c0-0.27 0.223-0.493 0.493-0.493h5.009c0.27 0 0.493 0.224 0.493 0.493v5.009c0 0.269-0.224 0.493-0.493 0.493h-5.009c-0.27 0-0.493-0.223-0.493-0.493v-5.009z"></path>
      <path
        d="M24.884 9.223h5.009c1.157 0 2.104-0.947 2.104-2.104v-5.016c0-1.157-0.947-2.104-2.104-2.104h-5.009c-1.157 0-2.104 0.947-2.104 2.104v5.009c0 1.164 0.947 2.11 2.104 2.11zM24.391 2.104c0-0.27 0.224-0.493 0.493-0.493h5.009c0.27 0 0.493 0.224 0.493 0.493v5.009c0 0.269-0.224 0.493-0.493 0.493h-5.009c-0.27 0-0.493-0.223-0.493-0.493v-5.009z"></path>
    </symbol>
    <symbol id="icon-location" viewBox="0 0 32 32">
      <title>location</title>
      <path
        d="M26.622 5.564c-2.443-3.536-6.315-5.564-10.622-5.564s-8.179 2.028-10.622 5.564c-2.431 3.518-2.992 7.971-1.505 11.906 0.398 1.075 1.030 2.118 1.876 3.097l9.399 11.040c0.213 0.25 0.524 0.394 0.852 0.394s0.639-0.144 0.852-0.394l9.396-11.037c0.849-0.984 1.481-2.027 1.875-3.093 1.491-3.942 0.929-8.395-1.502-11.913zM26.028 16.693c-0.304 0.822-0.801 1.635-1.476 2.418-0.002 0.002-0.004 0.004-0.005 0.006l-8.547 10.039-8.552-10.045c-0.674-0.781-1.171-1.594-1.478-2.425-1.23-3.254-0.763-6.936 1.249-9.85 2.019-2.922 5.22-4.599 8.781-4.599s6.761 1.676 8.781 4.599c2.013 2.913 2.481 6.595 1.247 9.857z"></path>
      <path
        d="M16 6.639c-3.455 0-6.266 2.811-6.266 6.266s2.811 6.266 6.266 6.266 6.266-2.811 6.266-6.266c0-3.455-2.811-6.266-6.266-6.266zM16 16.932c-2.221 0-4.028-1.807-4.028-4.028s1.807-4.028 4.028-4.028c2.221 0 4.028 1.807 4.028 4.028s-1.807 4.028-4.028 4.028z"></path>
    </symbol>
    <symbol id="icon-like" viewBox="0 0 32 32">
      <title>like</title>
      <path
        d="M29.665 4.642c-1.578-1.791-3.768-2.777-6.165-2.777-3.372 0-5.506 2.014-6.703 3.703-0.311 0.438-0.575 0.878-0.797 1.292-0.222-0.414-0.486-0.853-0.797-1.292-1.197-1.689-3.332-3.703-6.703-3.703-2.397 0-4.587 0.986-6.165 2.777-1.506 1.708-2.335 3.996-2.335 6.442 0 2.663 1.040 5.139 3.272 7.794 1.995 2.372 4.865 4.818 8.188 7.65 1.238 1.055 2.519 2.146 3.882 3.339l0.041 0.036c0.177 0.155 0.397 0.232 0.617 0.232s0.441-0.077 0.617-0.232l0.041-0.036c1.363-1.193 2.644-2.284 3.882-3.339 3.323-2.832 6.193-5.277 8.188-7.65 2.232-2.655 3.272-5.131 3.272-7.794 0-2.446-0.829-4.734-2.335-6.443zM19.325 25.101c-1.067 0.91-2.166 1.846-3.325 2.853-1.158-1.007-2.257-1.943-3.325-2.853-6.504-5.542-10.8-9.203-10.8-14.016 0-1.989 0.663-3.837 1.866-5.203 1.217-1.381 2.907-2.142 4.759-2.142 2.571 0 4.232 1.584 5.174 2.912 0.844 1.192 1.285 2.393 1.435 2.854 0.126 0.386 0.486 0.647 0.891 0.647s0.766-0.261 0.891-0.647c0.15-0.461 0.591-1.662 1.435-2.854 0.941-1.328 2.603-2.912 5.174-2.912 1.851 0 3.541 0.761 4.759 2.142 1.204 1.366 1.866 3.213 1.866 5.203 0 4.813-4.297 8.474-10.8 14.016z"></path>
    </symbol>
    <symbol id="icon-user" viewBox="0 0 32 32">
      <title>user</title>
      <path
        d="M15.884 17.242c0.033 0 0.066 0 0.106 0 0.013 0 0.027 0 0.040 0 0.020 0 0.046 0 0.066 0 1.942-0.033 3.512-0.716 4.672-2.021 2.551-2.876 2.127-7.806 2.081-8.277-0.166-3.532-1.836-5.222-3.214-6.010-1.027-0.59-2.227-0.908-3.565-0.934h-0.046c-0.007 0-0.020 0-0.027 0h-0.040c-0.736 0-2.18 0.119-3.565 0.908-1.392 0.789-3.088 2.478-3.254 6.037-0.046 0.471-0.47 5.401 2.081 8.277 1.153 1.305 2.724 1.988 4.665 2.021zM10.907 7.11c0-0.020 0.007-0.040 0.007-0.053 0.219-4.751 3.592-5.262 5.036-5.262h0.027c0.013 0 0.033 0 0.053 0 1.789 0.040 4.831 0.769 5.036 5.262 0 0.020 0 0.040 0.007 0.053 0.007 0.046 0.471 4.552-1.637 6.925-0.835 0.941-1.948 1.405-3.413 1.418-0.013 0-0.020 0-0.033 0v0c-0.013 0-0.020 0-0.033 0-1.458-0.013-2.578-0.477-3.406-1.418-2.101-2.359-1.65-6.885-1.643-6.925z"></path>
      <path
        d="M29.608 25.42c0-0.007 0-0.013 0-0.020 0-0.053-0.007-0.106-0.007-0.166-0.040-1.312-0.126-4.38-3.002-5.361-0.020-0.007-0.046-0.013-0.066-0.020-2.989-0.762-5.474-2.485-5.5-2.505-0.404-0.285-0.961-0.186-1.246 0.219s-0.186 0.961 0.219 1.246c0.113 0.080 2.75 1.915 6.050 2.763 1.544 0.55 1.716 2.2 1.763 3.711 0 0.060 0 0.113 0.007 0.166 0.007 0.596-0.033 1.517-0.139 2.048-1.073 0.61-5.281 2.717-11.683 2.717-6.375 0-10.609-2.114-11.689-2.724-0.106-0.53-0.152-1.451-0.139-2.048 0-0.053 0.007-0.106 0.007-0.166 0.046-1.511 0.219-3.161 1.763-3.711 3.3-0.848 5.937-2.69 6.050-2.763 0.404-0.285 0.504-0.842 0.219-1.246s-0.842-0.504-1.246-0.219c-0.027 0.020-2.498 1.743-5.5 2.505-0.027 0.007-0.046 0.013-0.066 0.020-2.876 0.987-2.962 4.056-3.002 5.361 0 0.060 0 0.113-0.007 0.166 0 0.007 0 0.013 0 0.020-0.007 0.345-0.013 2.114 0.338 3.002 0.066 0.172 0.186 0.318 0.345 0.417 0.199 0.133 4.963 3.168 12.935 3.168s12.736-3.042 12.935-3.168c0.152-0.099 0.278-0.245 0.345-0.417 0.331-0.881 0.325-2.651 0.318-2.995z"></path>
    </symbol>
    <symbol id="icon-printer" viewBox="0 0 32 32">
      <title>printer</title>
      <path
        d="M26.479 6.559h-0.822v-1.83c0-2.606-2.122-4.729-4.729-4.729h-9.928c-2.606 0-4.729 2.122-4.729 4.729v1.83h-0.749c-2.606 0-4.729 2.122-4.729 4.729v7.627c0 2.606 2.122 4.729 4.729 4.729h0.743v5.995c0 1.3 1.061 2.361 2.361 2.361h14.664c1.3 0 2.361-1.061 2.361-2.361v-5.995h0.829c2.606 0 4.729-2.122 4.729-4.729v-7.627c0-2.606-2.122-4.729-4.729-4.729zM8.055 4.729c0-1.618 1.32-2.938 2.938-2.938h9.922c1.618 0 2.938 1.32 2.938 2.938v1.83h-15.798v-1.83zM23.859 29.652c0 0.312-0.259 0.57-0.57 0.57h-14.664c-0.312 0-0.57-0.259-0.57-0.57v-9.889h15.804v9.889zM29.417 18.921c0 1.618-1.32 2.938-2.938 2.938h-0.822v-2.096h1.181c0.497 0 0.895-0.398 0.895-0.895s-0.398-0.895-0.895-0.895h-21.886c-0.497 0-0.895 0.398-0.895 0.895s0.398 0.895 0.895 0.895h1.32v2.096h-0.749c-1.618 0-2.938-1.32-2.938-2.938v-7.627c0-1.618 1.32-2.938 2.938-2.938h20.957c1.618 0 2.938 1.32 2.938 2.938v7.627z"></path>
      <path
        d="M10.223 24.167h11.401c0.497 0 0.895-0.398 0.895-0.895s-0.398-0.895-0.895-0.895h-11.401c-0.497 0-0.895 0.398-0.895 0.895s0.405 0.895 0.895 0.895z"></path>
      <path
        d="M21.697 26.038h-11.407c-0.497 0-0.895 0.398-0.895 0.895s0.398 0.895 0.895 0.895h11.401c0.497 0 0.895-0.398 0.895-0.895s-0.398-0.895-0.889-0.895z"></path>
      <path
        d="M26.459 10.074h-1.817c-0.497 0-0.895 0.398-0.895 0.895s0.398 0.895 0.895 0.895h1.817c0.497 0 0.895-0.398 0.895-0.895s-0.398-0.895-0.895-0.895z"></path>
    </symbol>
    <symbol id="icon-calculator" viewBox="0 0 32 32">
      <title>calculator</title>
      <path
        d="M28.087 0h-24.174c-1.045 0-1.894 0.85-1.894 1.894v28.211c0 1.045 0.85 1.894 1.894 1.894h24.174c1.045 0 1.894-0.85 1.894-1.894v-28.211c0-1.044-0.85-1.894-1.894-1.894zM3.534 1.894c0-0.209 0.17-0.379 0.379-0.379h24.174c0.209 0 0.379 0.17 0.379 0.379v6.569h-24.932v-6.569zM10.834 30.484h-6.921c-0.209 0-0.379-0.17-0.379-0.379v-9.118h7.3v9.497zM10.834 19.472h-7.3v-9.493h7.3v9.493zM19.65 30.485h-7.3v-9.497h7.3v9.497zM19.65 19.472h-7.3v-9.493h7.3v9.493zM28.466 30.106c0 0.209-0.17 0.379-0.379 0.379h-6.921v-20.506h7.3v20.127z"></path>
      <path
        d="M9.058 13.967h-1.116v-1.116c0-0.418-0.339-0.758-0.758-0.758s-0.758 0.339-0.758 0.758v1.116h-1.116c-0.418 0-0.758 0.339-0.758 0.758s0.339 0.758 0.758 0.758h1.116v1.116c0 0.419 0.339 0.758 0.758 0.758s0.758-0.339 0.758-0.758v-1.116h1.116c0.418 0 0.758-0.339 0.758-0.758s-0.339-0.758-0.758-0.758z"></path>
      <path
        d="M17.911 13.967h-3.822c-0.418 0-0.758 0.339-0.758 0.758s0.339 0.758 0.758 0.758h3.822c0.418 0 0.758-0.339 0.758-0.758s-0.339-0.758-0.758-0.758z"></path>
      <path
        d="M8.256 25.738l0.915-0.915c0.296-0.296 0.296-0.776 0-1.072s-0.776-0.296-1.072 0l-0.915 0.915-0.915-0.915c-0.296-0.296-0.776-0.296-1.072 0s-0.296 0.776 0 1.072l0.915 0.915-0.915 0.915c-0.296 0.296-0.296 0.776 0 1.072 0.148 0.148 0.342 0.222 0.536 0.222s0.388-0.074 0.536-0.222l0.915-0.915 0.915 0.915c0.148 0.148 0.342 0.222 0.536 0.222s0.388-0.074 0.536-0.222c0.296-0.296 0.296-0.776 0-1.072l-0.915-0.915z"></path>
      <path
        d="M17.986 23.752c-0.296-0.296-0.776-0.296-1.072 0l-2.901 2.901c-0.296 0.296-0.296 0.776 0 1.072 0.148 0.148 0.342 0.222 0.536 0.222s0.388-0.074 0.536-0.222l2.901-2.901c0.296-0.296 0.296-0.776 0-1.072z"></path>
      <path
        d="M15.196 24.288c0 0.357-0.289 0.646-0.646 0.646s-0.646-0.289-0.646-0.646c0-0.357 0.289-0.646 0.646-0.646s0.646 0.289 0.646 0.646z"></path>
      <path
        d="M18.097 27.188c0 0.357-0.289 0.646-0.646 0.646s-0.646-0.289-0.646-0.646c0-0.357 0.289-0.646 0.646-0.646s0.646 0.289 0.646 0.646z"></path>
      <path
        d="M26.73 18.151h-3.873c-0.418 0-0.758 0.339-0.758 0.758s0.339 0.758 0.758 0.758h3.873c0.418 0 0.758-0.339 0.758-0.758s-0.339-0.758-0.758-0.758z"></path>
      <path
        d="M26.73 20.796h-3.873c-0.418 0-0.758 0.339-0.758 0.758s0.339 0.758 0.758 0.758h3.873c0.418 0 0.758-0.339 0.758-0.758s-0.339-0.758-0.758-0.758z"></path>
    </symbol>
    <symbol id="icon-close" viewBox="0 0 32 32">
      <title>close</title>
      <path
        d="M18.83 16l12.584-12.584c0.782-0.781 0.782-2.049 0-2.83s-2.048-0.782-2.83 0l-12.584 12.584-12.584-12.584c-0.782-0.782-2.048-0.782-2.83 0s-0.782 2.049 0 2.83l12.584 12.584-12.584 12.584c-0.782 0.781-0.782 2.049 0 2.83 0.391 0.39 0.903 0.586 1.415 0.586s1.024-0.195 1.415-0.586l12.584-12.584 12.584 12.584c0.391 0.391 0.903 0.586 1.415 0.586s1.024-0.195 1.415-0.586c0.782-0.781 0.782-2.049 0-2.83l-12.584-12.583z"></path>
    </symbol>
  </defs>
</svg>
